<svg width="42" height="42" viewBox="0 0 42 42" fill="none" xmlns="http://www.w3.org/2000/svg">
<path opacity="0.2" d="M15.93 41.903C15.2209 41.7365 14.6275 41.3473 13.797 40.5038C12.4097 39.0947 11.284 38.5081 9.32727 38.1745C7.29747 37.8286 6.39544 37.0816 5.85314 35.2974C5.18376 33.0951 4.48412 32.0404 2.94687 30.9162C1.20303 29.6409 0.755606 28.5163 1.18124 26.4783C1.57547 24.5908 1.42451 23.2487 0.623847 21.5233C-0.331451 19.4645 -0.213522 18.3645 1.14328 16.6777C2.38715 15.1315 2.77756 14.1094 2.96385 11.9115C3.15184 9.69355 3.7751 8.7836 5.61061 8.04718C7.14253 7.43261 8.45306 6.36572 9.17961 5.14166C10.0198 3.72619 10.1425 3.56391 10.663 3.17936C11.5031 2.55883 12.1823 2.38687 13.4758 2.46717C15.7228 2.60667 16.9271 2.33953 18.4361 1.36696C20.4035 0.09887 21.5964 0.09887 23.5639 1.36696C25.0728 2.33953 26.2772 2.60667 28.5241 2.46717C30.649 2.33524 31.5331 2.88753 32.8283 5.15578C33.4702 6.27984 34.7821 7.37385 36.2182 7.98224C38.2632 8.84883 38.8574 9.63975 39.0083 11.6951C39.1718 13.921 39.6327 15.1656 40.8537 16.6777C42.2135 18.3614 42.3321 19.4625 41.3759 21.5233C40.5756 23.2487 40.4244 24.5908 40.8186 26.4783C41.2444 28.5163 40.7967 29.6409 39.0531 30.9162C37.5159 32.0404 36.8163 33.0951 36.1468 35.2974C35.6046 37.0816 34.7025 37.8286 32.6727 38.1745C30.7118 38.5088 29.5848 39.0972 28.203 40.5084C26.6712 42.0722 25.5731 42.3306 23.4316 41.6294C21.68 41.0563 20.3314 41.0538 18.5869 41.6209C17.3649 42.0179 16.7135 42.0871 15.93 41.903Z" fill="#D9D9D9"/>
<path d="M15.93 41.4874C15.2209 41.3206 14.6275 40.9313 13.797 40.0878C12.4097 38.6791 11.284 38.0922 9.32727 37.759C7.29747 37.413 6.39544 36.6657 5.85314 34.8818C5.18376 32.6793 4.48412 31.6245 2.94687 30.5003C1.20303 29.225 0.755606 28.1004 1.18124 26.0625C1.57547 24.1749 1.42451 22.8328 0.623847 21.1074C-0.331451 19.0486 -0.213522 17.9486 1.14328 16.2619C2.38715 14.7156 2.77756 13.6935 2.96385 11.4956C3.15184 9.27765 3.7751 8.3677 5.61061 7.63131C7.14253 7.01671 8.45306 5.94981 9.17961 4.72575C10.0198 3.31029 10.1425 3.14801 10.663 2.7635C11.5031 2.14293 12.1823 1.97097 13.4758 2.05127C15.7228 2.19077 16.9271 1.92367 18.4361 0.951073C20.4035 -0.317024 21.5964 -0.317024 23.5639 0.951073C25.0728 1.92367 26.2772 2.19077 28.5241 2.05127C30.649 1.91934 31.5331 2.47163 32.8283 4.73988C33.4702 5.86398 34.7821 6.95795 36.2182 7.56638C38.2632 8.43292 38.8574 9.22385 39.0083 11.2792C39.1718 13.5051 39.6327 14.7497 40.8537 16.2619C42.2135 17.9455 42.3321 19.0466 41.3759 21.1074C40.5756 22.8328 40.4244 24.1749 40.8186 26.0625C41.2444 28.1004 40.7967 29.225 39.0531 30.5003C37.5159 31.6245 36.8163 32.6793 36.1468 34.8818C35.6046 36.6657 34.7025 37.413 32.6727 37.759C30.7118 38.0929 29.5848 38.6816 28.203 40.0925C26.6712 41.6566 25.5731 41.9146 23.4316 41.2138C21.68 40.6404 20.3314 40.6379 18.5869 41.2049C17.3649 41.602 16.7135 41.6712 15.93 41.4874Z" fill="white"/>
<path d="M28.5283 19.0283C28.3961 18.7611 28.5094 18.4404 28.7793 18.3095C29.0492 18.1786 29.373 18.2908 29.5053 18.558C29.6375 18.8252 29.5242 19.1459 29.2543 19.2768C28.9844 19.4077 28.6606 19.2955 28.5283 19.0283ZM31.1543 24.3725C31.022 24.1053 31.1354 23.7846 31.4053 23.6537C31.6751 23.5227 31.999 23.635 32.1312 23.9022C32.2635 24.1694 32.1501 24.49 31.8803 24.621C31.6104 24.7519 31.2865 24.6397 31.1543 24.3725ZM31.3837 17.4384C29.6564 16.2172 27.4029 15.9019 25.3167 16.7009L31.0193 28.3111C32.9409 27.1808 34.0799 25.2275 34.177 23.13L36.3414 23.2823C36.4654 23.2903 36.5737 23.1994 36.5816 23.0738C36.5898 22.9509 36.498 22.844 36.3712 22.836L34.1796 22.681C34.158 21.7672 33.9369 20.8346 33.4968 19.9368C33.0569 19.0416 32.4524 18.2935 31.7399 17.7109L32.9706 15.9073C33.0407 15.8057 33.0137 15.6668 32.9112 15.5973C32.8087 15.5278 32.6683 15.5545 32.5981 15.6561L31.3837 17.4357" fill="#E6E6E6"/>
<path d="M26.1264 21.8099C24.5179 22.5795 22.7879 22.9696 20.9851 22.9696C16.9234 22.9696 13.2341 20.9282 11.0832 17.6789C10.9131 17.4224 10.5623 17.3609 10.3113 17.5426L8.24128 19.0523C8.00649 19.2233 7.95252 19.5493 8.11713 19.7898C10.9428 23.9663 15.7278 26.5823 20.9851 26.5823C23.3412 26.5823 25.6055 26.0719 27.7133 25.0646L26.1264 21.8099Z" fill="#D9D9D9"/>
<path d="M20.9663 8.96512H22.0863V6.51479C22.0863 5.90289 21.5843 5.40588 20.9663 5.40588C20.3483 5.40588 19.8463 5.90289 19.8463 6.51479V8.96512H20.9663Z" fill="#D9D9D9"/>
<path d="M18.0515 13.7483L10.3517 29.4388C10.1844 29.7782 10.0954 30.1469 10.0873 30.5237L10.0414 32.5785C10.0306 33.1103 10.6513 33.4096 11.0669 33.0729L12.67 31.7689C12.9642 31.5311 13.2017 31.2318 13.369 30.8925L20.9581 15.4237L18.0542 13.751L18.0515 13.7483Z" fill="#D9D9D9"/>
<path d="M31.8478 30.521C31.8397 30.1443 31.748 29.7755 31.5834 29.4361L23.8836 13.7456L20.9797 15.4237L28.5688 30.8871C28.7361 31.2264 28.9736 31.5231 29.2678 31.7635L30.8709 33.0675C31.2865 33.4042 31.9099 33.1049 31.8964 32.5732L31.8506 30.5183L31.8478 30.521Z" fill="#D9D9D9"/>
<path d="M20.9662 8.77014C19.1121 8.77014 17.6061 10.2639 17.6061 12.0969C17.6061 13.93 19.1148 15.4237 20.9662 15.4237C22.8175 15.4237 24.3262 13.93 24.3262 12.0969C24.3262 10.2639 22.8175 8.77014 20.9662 8.77014ZM20.9662 13.9273C19.9487 13.9273 19.1175 13.107 19.1175 12.0969C19.1175 11.0869 19.946 10.2665 20.9662 10.2665C21.9863 10.2665 22.8149 11.0869 22.8149 12.0969C22.8149 13.107 21.9863 13.9273 20.9662 13.9273Z" fill="#B3B3B3"/>
</svg>
