<svg width="37" height="42" viewBox="0 0 37 42" fill="none" xmlns="http://www.w3.org/2000/svg">
<g clip-path="url(#clip0_398_296)">
<path d="M17.9161 0.03864C17.9202 0.02604 17.921 0.0126 17.9194 0H18.6065C18.6032 0.01344 18.604 0.02688 18.609 0.03948C18.3778 0.15204 18.1473 0.15204 17.9161 0.03864Z" fill="#94F1C6"/>
<path d="M36.2632 10.2673C36.7522 10.9603 36.9975 11.7331 36.9975 12.584C36.9975 18.1045 37.0042 23.625 36.9942 29.1463C36.9909 30.8263 36.2574 32.1166 34.8317 32.9725C30.1328 35.7916 25.4281 38.6005 20.7251 41.4103C19.9717 41.8606 19.1536 42.047 18.2816 41.9908C18.5601 41.8933 18.5394 41.6623 18.5394 41.428C18.5361 39.013 18.5377 36.598 18.5377 34.1821C18.5377 34.0519 18.527 33.9209 18.5609 33.7932C18.6007 33.6798 18.6927 33.6487 18.7988 33.6437C19.195 33.6235 19.5523 33.4824 19.888 33.2808C22.0895 31.9553 24.2992 30.6424 26.5032 29.321C27.1431 28.9372 27.7946 28.5701 28.4237 28.1694C29.1796 27.6872 29.6247 26.99 29.6264 26.0644C29.6338 22.6926 29.6264 19.3208 29.633 15.9491C29.6338 15.5224 29.5427 15.1318 29.3471 14.7605C29.3098 14.6899 29.27 14.621 29.2667 14.5379C29.2733 14.4262 29.3603 14.3808 29.4391 14.3329C31.2286 13.246 33.0181 12.1607 34.8118 11.0804C35.2113 10.8402 35.6084 10.5966 36.007 10.3555C36.0858 10.3085 36.1612 10.2455 36.2632 10.269V10.2673Z" fill="#E6E6E6"/>
<path d="M18.6132 33.742C18.6107 34.4526 18.6065 35.1632 18.6065 35.873C18.6057 37.7874 18.6065 39.7018 18.6057 41.6161C18.6057 41.9647 18.6016 41.9647 18.2816 41.9899C17.5862 41.9404 16.9471 41.7194 16.3396 41.3708C11.4086 38.5442 6.47517 35.7218 1.5409 32.902C0.634941 32.3845 0.111923 31.6176 0.000854492 30.5659C0.00251224 30.5155 0.00665659 30.4651 0.00665659 30.4139C0.00665659 24.491 0.00665659 18.5674 0.00665659 12.6445C0.00665659 12.5941 0.00251224 12.5437 0.000854492 12.4925C0.0481002 11.8961 0.151709 11.314 0.43767 10.7789C0.515584 10.7453 0.576091 10.7898 0.637428 10.8251C2.09707 11.6558 3.5592 12.4824 5.01884 13.3132C5.79881 13.7567 6.57795 14.2019 7.36206 14.6387C7.44329 14.684 7.53032 14.7218 7.58254 14.8067C7.58834 14.8302 7.58834 14.8529 7.58337 14.8764C7.42671 15.272 7.36372 15.6794 7.36455 16.1078C7.37201 19.6174 7.36952 23.1269 7.36786 26.6364C7.36786 27.2958 7.63642 27.7956 8.20337 28.1232C9.71937 28.9993 11.2428 29.8628 12.7613 30.7348C14.2674 31.5991 15.7751 32.461 17.2837 33.322C17.5978 33.5017 17.9343 33.621 18.299 33.6412C18.3993 33.647 18.498 33.6622 18.5883 33.7134L18.6132 33.7403V33.742Z" fill="#B3B3B3"/>
<path d="M7.5643 14.81C6.45444 14.1833 5.34375 13.5567 4.23389 12.9292C2.9682 12.2135 1.70252 11.497 0.436829 10.7805C0.754286 10.0262 1.28891 9.47095 1.97604 9.05851C3.05772 8.40919 4.14106 7.76407 5.22356 7.11643C8.83413 4.95763 12.4447 2.79883 16.0553 0.640029C16.6305 0.296469 17.2488 0.0906687 17.9152 0.0394287H18.6082C19.2075 0.0881487 19.7752 0.249429 20.2983 0.548469C25.0858 3.28603 29.8717 6.02527 34.6568 8.76619C35.3058 9.13831 35.857 9.62383 36.2623 10.2673C34.8018 11.1501 33.3397 12.0313 31.8801 12.9149C31.0156 13.4383 30.1544 13.9666 29.2915 14.4933C29.2733 14.5093 29.2534 14.5118 29.2327 14.5009C29.1282 14.432 29.0652 14.3228 28.9857 14.2304C28.6193 13.8028 28.1261 13.5601 27.6537 13.2904C26.4816 12.6218 25.3121 11.9473 24.1392 11.2786C22.6489 10.4285 21.1653 9.56671 19.6708 8.72251C18.7474 8.20087 17.8315 8.24035 16.9206 8.78635C14.124 10.463 11.3249 12.1363 8.52496 13.807C8.21082 13.9943 7.95469 14.2405 7.75245 14.5479C7.6936 14.6369 7.65464 14.7428 7.56347 14.8083L7.5643 14.81Z" fill="#D9D9D9"/>
<path d="M29.255 14.4891C29.2674 14.4916 29.2799 14.4925 29.2923 14.4933C29.4191 14.7982 29.5973 15.0813 29.657 15.4148C29.6736 15.508 29.6893 15.5987 29.6893 15.6928C29.6893 19.1956 29.6968 22.6984 29.6819 26.2012C29.6794 26.8724 29.3677 27.4369 28.8762 27.888C28.3209 28.3995 27.6312 28.7011 26.9988 29.0883C25.5218 29.9938 24.0298 30.8742 22.5428 31.7637C21.6584 32.2929 20.7756 32.8255 19.8871 33.3488C19.539 33.5538 19.1701 33.7058 18.7557 33.7024C18.7084 33.7024 18.6604 33.7268 18.6123 33.7402L18.5932 33.7428C18.5377 33.668 18.5377 33.5798 18.5369 33.4933C18.5294 32.2828 18.4664 31.0741 18.4929 29.8636C18.4954 29.7628 18.4871 29.6604 18.5203 29.5621C18.5476 29.4924 18.609 29.4672 18.6728 29.4588C19.0988 29.405 19.4511 29.1765 19.8075 28.9623C21.5448 27.9207 23.2838 26.8816 25.0236 25.8442C25.6295 25.483 25.937 24.9547 25.9354 24.2323C25.9296 22.0919 25.9287 19.9516 25.937 17.8113C25.9387 17.4392 25.874 17.0923 25.719 16.7596C25.719 16.6622 25.7978 16.6286 25.8599 16.5841C26.896 15.8474 27.9852 15.1947 29.0735 14.542C29.129 14.5084 29.1829 14.4723 29.2533 14.4874L29.255 14.4891Z" fill="#B3B3B3"/>
<path d="M29.255 14.4891C28.073 15.2123 26.8803 15.9205 25.7481 16.7243C25.7108 16.721 25.6768 16.7059 25.6552 16.6756C25.3461 16.2313 24.8761 16.0045 24.4285 15.7483C22.7906 14.8117 21.1511 13.8767 19.5166 12.9343C19.4917 12.92 19.4652 12.9074 19.4412 12.8923C18.706 12.4269 18.0039 12.4857 17.2679 12.941C15.5521 14.0019 13.8123 15.0208 12.0791 16.0523C11.7277 16.2615 11.4135 16.5034 11.2154 16.8747C11.198 16.9066 11.1715 16.9318 11.1392 16.9495C11.0522 16.9696 10.9883 16.9167 10.9229 16.8755C9.96468 16.2733 8.99656 15.6886 8.0102 15.1351C7.85769 15.0494 7.67285 15.0074 7.56841 14.8436C7.56593 14.8327 7.56427 14.8209 7.56427 14.8091C7.73502 14.3681 8.04004 14.0397 8.4321 13.802C9.68038 13.0443 10.9345 12.2967 12.1877 11.5474C13.7974 10.5848 15.4013 9.6129 17.02 8.6679C17.9484 8.1261 18.8858 8.1891 19.8067 8.72922C20.5477 9.1635 21.297 9.58434 22.0413 10.0127C22.8603 10.484 23.6775 10.9577 24.4973 11.4273C25.3237 11.9011 26.1559 12.3631 26.9781 12.8444C27.5334 13.1695 28.1195 13.4425 28.6358 13.8339C28.877 14.017 29.0876 14.2321 29.255 14.4883V14.4891Z" fill="#E6E6E6"/>
<path d="M7.56842 14.8436C8.54814 15.372 9.51461 15.9239 10.4529 16.5236C10.675 16.6656 10.9021 16.8008 11.1276 16.9394C11.1798 16.9982 11.1583 17.0637 11.1384 17.1242C11.0613 17.3561 11.0621 17.5938 11.0621 17.834C11.0638 20.1104 11.0671 22.3877 11.0596 24.6641C11.058 25.1899 11.2702 25.5553 11.7211 25.8132C13.4401 26.796 15.1625 27.7746 16.8775 28.7649C17.1195 28.9052 17.3657 29.0388 17.6061 29.1816C17.8439 29.3219 18.1001 29.4092 18.3711 29.4529C18.4407 29.4638 18.5162 29.4588 18.5667 29.5243C18.5692 29.7477 18.5725 29.972 18.575 30.1955C18.5858 31.2917 18.5957 32.3879 18.6048 33.4849C18.6048 33.5714 18.5974 33.6579 18.5932 33.7436C17.8158 33.7369 17.1792 33.3471 16.5352 32.9717C15.8124 32.55 15.083 32.1375 14.3577 31.7209C13.4269 31.1867 12.4969 30.6499 11.5652 30.1165C10.8383 29.6999 10.1106 29.2874 9.38282 28.8725C8.94186 28.6205 8.49178 28.3827 8.06243 28.1114C7.57505 27.8031 7.31064 27.3386 7.30981 26.7548C7.30401 23.1059 7.30567 19.4577 7.30898 15.8088C7.30898 15.4669 7.38192 15.1385 7.56676 14.8436H7.56842Z" fill="#D9D9D9"/>
<path d="M18.5667 29.5252C18.2236 29.5252 17.9078 29.4277 17.611 29.2572C15.6168 28.1131 13.6225 26.9691 11.6266 25.8275C11.2014 25.5847 10.9983 25.2252 10.9991 24.7296C11.0033 22.4599 11.0033 20.1911 10.9983 17.9214C10.9983 17.5863 11.0174 17.2587 11.1276 16.9411C11.305 16.5421 11.6092 16.2708 11.9747 16.0524C13.7866 14.973 15.5977 13.8919 17.4046 12.8041C18.0545 12.4127 18.6944 12.4035 19.3492 12.7798C21.2589 13.876 23.1703 14.9697 25.0816 16.0625C25.3635 16.2238 25.5715 16.4573 25.7472 16.7261C25.9478 17.0419 26.0034 17.3922 26.0034 17.7618C26 19.9315 26.0017 22.1004 26.0025 24.2701C26.0025 24.9774 25.6975 25.5108 25.1024 25.8678C23.2225 26.9968 21.3385 28.1207 19.4569 29.2471C19.1817 29.4118 18.8867 29.5092 18.5667 29.5269V29.5252Z" fill="white"/>
</g>
<defs>
<clipPath id="clip0_398_296">
<rect width="37" height="42" fill="white"/>
</clipPath>
</defs>
</svg>
