<svg width="30" height="30" viewBox="0 0 30 30" fill="none" xmlns="http://www.w3.org/2000/svg">
<path d="M15.01 3C14.82 3 14.64 3 14.45 3.01C7.82998 3.32 2.70997 8.93 3.00997 15.55C3.30997 21.99 8.61998 27 14.99 27C15.18 27 15.36 27 15.55 26.99C22.17 26.68 27.29 21.07 26.99 14.45C26.69 8.01 21.38 3 15.01 3ZM12.51 15.87L12.54 15.89L13.91 16.57L13.94 16.58L14.55 16.89C14.83 17.04 15.17 17.04 15.45 16.89L16.02 16.6L16.05 16.59L17.58 15.83L17.59 15.82L20.85 14.19L22 13.62V19C22 19.55 21.55 20 21 20H8.99997C8.44997 20 7.99997 19.55 7.99997 19V13.62L9.17998 14.21L12.51 15.87ZM21.45 11.66L18.16 13.3L18.15 13.31L15 14.88L11.97 13.37L11.96 13.36L8.54997 11.66C8.20997 11.49 7.99997 11.14 7.99997 10.76V10H22V10.76C22 11.15 21.79 11.49 21.45 11.66Z" fill="#D9D9D9"/>
</svg>
