<svg width="29" height="42" viewBox="0 0 29 42" fill="none" xmlns="http://www.w3.org/2000/svg">
<g clip-path="url(#clip0_398_386)">
<path d="M7.25145 42C11.2527 42 14.5 38.864 14.5 35V28H7.25145C3.25025 28 0.00289917 31.136 0.00289917 35C0.00289917 38.864 3.25025 42 7.25145 42Z" fill="#CBCBCB"/>
<path d="M0.00289917 21C0.00289917 17.136 3.25025 14 7.25145 14H14.5V28H7.25145C3.25025 28 0.00289917 24.864 0.00289917 21Z" fill="#D9D9D9"/>
<path d="M0.00309753 7C0.00309753 3.136 3.25045 0 7.25165 0H14.5002V14H7.25165C3.25045 14 0.00309753 10.864 0.00309753 7Z" fill="#CBCBCB"/>
<path d="M14.5 0H21.7486C25.7498 0 28.9971 3.136 28.9971 7C28.9971 10.864 25.7498 14 21.7486 14H14.5V0Z" fill="#D9D9D9"/>
<path d="M28.9971 21C28.9971 24.864 25.7498 28 21.7486 28C17.7474 28 14.5 24.864 14.5 21C14.5 17.136 17.7474 14 21.7486 14C25.7498 14 28.9971 17.136 28.9971 21Z" fill="#CBCBCB"/>
</g>
<defs>
<clipPath id="clip0_398_386">
<rect width="29" height="42" fill="white"/>
</clipPath>
</defs>
</svg>
