<svg width="34" height="42" viewBox="0 0 34 42" fill="none" xmlns="http://www.w3.org/2000/svg">
<path d="M10.4734 40.7928C12.2307 41.5002 14.1374 41.9199 16.1393 41.9897C18.8486 42.0844 21.4248 41.5243 23.7281 40.4602C20.9662 39.3751 18.4648 37.7882 16.33 35.8153C14.9461 38.0309 12.8993 39.781 10.4734 40.7928Z" fill="#E6E6E6"/>
<path d="M16.3296 35.8159C11.4564 31.3088 8.50023 24.7857 8.75 17.6308C8.75814 17.3984 8.77044 17.1661 8.78473 16.934C7.912 16.7083 7.00085 16.5705 6.06316 16.5378C4.72096 16.4909 3.42118 16.6574 2.19406 17.0031C0.893192 19.2817 0.108168 21.8962 0.0103823 24.6968C-0.242014 31.9243 4.1318 38.2395 10.473 40.7934C12.8991 39.7816 14.9456 38.0335 16.3296 35.8159Z" fill="#D9D9D9"/>
<path d="M16.3299 35.8157C17.4628 34.0024 18.1497 31.8767 18.2296 29.5865C18.44 23.5623 14.3901 18.3799 8.78502 16.9338C8.77057 17.1659 8.75843 17.3982 8.75028 17.6304C8.50036 24.7853 11.4567 31.3086 16.3299 35.8157Z" fill="#B3B3B3"/>
<path d="M17.6029 0C14.4104 2.55748 11.8896 5.92974 10.3644 9.8145C9.49117 12.0396 8.94245 14.4298 8.78229 16.9353C14.3875 18.3815 18.4375 23.5637 18.227 29.588C18.1471 31.8783 17.4581 34.0019 16.3271 35.8171C18.4619 37.7922 20.9633 39.377 23.7253 40.4622C29.2689 37.8995 33.2022 32.3854 33.43 25.8631C33.5775 21.6374 31.954 17.8712 29.6598 14.6922C27.2371 11.33 17.6029 0 17.6029 0Z" fill="#B3B3B3"/>
</svg>
