<svg width="35" height="43" viewBox="0 0 35 43" fill="none" xmlns="http://www.w3.org/2000/svg">
<path d="M21.6027 0.0143414L35 0L12.523 21.8228L6.66503 27.4813L0 20.999L21.6027 0.0143414ZM21.478 19.4995C21.6519 19.2764 21.9718 19.3864 22.2146 19.3577L34.9885 19.3609L23.3465 30.6587L16.647 24.1908L21.478 19.4995Z" fill="#E6E6E6"/>
<path d="M9.96881 30.946L16.647 24.4669L23.3464 30.9349L23.3743 30.9636L16.6486 37.4363L9.96881 30.946Z" fill="#D9D9D9"/>
<path d="M16.6486 37.7171L23.3743 31.2444L34.9934 42.5422C30.6168 42.5518 26.2418 42.539 21.8668 42.5486C21.6174 42.6028 21.4632 42.3813 21.3041 42.2442L16.6486 37.7171Z" fill="#B3B3B3"/>
</svg>
