<svg width="113" height="42" viewBox="0 0 113 42" fill="none" xmlns="http://www.w3.org/2000/svg">
<g clip-path="url(#clip0_398_310)">
<path d="M8.52725 12.7041C8.30719 12.7041 8.25218 12.5945 8.3622 12.4303L9.51751 10.9518C9.62754 10.7875 9.90261 10.678 10.1227 10.678H29.7629C29.9829 10.678 30.038 10.8423 29.9279 11.0065L28.9927 12.4303C28.8827 12.5945 28.6076 12.7588 28.4425 12.7588L8.52725 12.7041Z" fill="#D9D9D9"/>
<path d="M0.220058 17.7419C0 17.7419 -0.0550146 17.6324 0.0550146 17.4681L1.21032 15.9896C1.32035 15.8253 1.59542 15.7158 1.81548 15.7158H26.9021C27.1222 15.7158 27.2322 15.8801 27.1772 16.0444L26.7371 17.3586C26.6821 17.5776 26.462 17.6871 26.242 17.6871L0.220058 17.7419Z" fill="#D9D9D9"/>
<path d="M13.5336 22.7796C13.3135 22.7796 13.2585 22.6153 13.3686 22.4511L14.1388 21.0821C14.2488 20.9178 14.4688 20.7535 14.6889 20.7535H25.6918C25.9119 20.7535 26.0219 20.9178 26.0219 21.1368L25.9119 22.4511C25.9119 22.6701 25.6918 22.8344 25.5268 22.8344L13.5336 22.7796Z" fill="#D9D9D9"/>
<path d="M70.6387 11.7184C67.1728 12.5945 64.8072 13.2516 61.3963 14.1278C60.5711 14.3468 60.516 14.4016 59.8009 13.5802C58.9756 12.6493 58.3705 12.0469 57.2152 11.4993C53.7492 9.80182 50.3934 10.2947 47.2575 12.3207C43.5165 14.7301 41.591 18.2894 41.646 22.7249C41.701 27.1056 44.7269 30.7197 49.073 31.322C52.814 31.8149 55.9498 30.5007 58.4255 27.708C58.9206 27.1056 59.3607 26.4485 59.9109 25.6819C57.9304 25.6819 55.4547 25.6819 49.2931 25.6819C48.1378 25.6819 47.8627 24.97 48.2478 24.0391C48.963 22.3416 50.2833 19.4941 51.0535 18.0704C51.2186 17.7419 51.6037 17.1943 52.4289 17.1943C55.2346 17.1943 65.5774 17.1943 72.4542 17.1943C72.3442 18.6728 72.3442 20.1512 72.1241 21.6297C71.519 25.5724 70.0336 29.1864 67.6129 32.3625C63.6519 37.5645 58.4805 40.7953 51.9338 41.6714C46.5423 42.3833 41.536 41.3429 37.1348 38.0574C33.0638 34.9909 30.7531 30.9387 30.148 25.9009C29.4328 19.9322 31.1933 14.5658 34.8242 9.85658C38.7303 4.76401 43.9016 1.53324 50.2283 0.38331C55.3997 -0.54759 60.351 0.0547567 64.8072 3.06649C67.723 4.98305 69.8135 7.61147 71.1889 10.7875C71.519 11.2803 71.2989 11.5541 70.6387 11.7184Z" fill="#D9D9D9"/>
<path d="M88.8486 42C83.8423 41.8905 79.2761 40.4668 75.4251 37.1813C72.1792 34.3886 70.1437 30.8292 69.4835 26.6128C68.4932 20.4251 70.1987 14.9492 73.9397 10.0756C77.9557 4.8188 82.797 2.08086 89.3438 0.93092C94.9552 -0.0547382 100.237 0.49285 105.023 3.72362C109.369 6.68059 112.065 10.678 112.78 15.9348C113.715 23.3273 111.57 29.3507 106.453 34.4981C102.822 38.1669 98.3662 40.4668 93.2498 41.5072C91.7644 41.781 90.279 41.8357 88.8486 42ZM101.942 19.8775C101.887 19.1656 101.887 18.618 101.777 18.0704C100.787 12.6493 95.7805 9.58281 90.5541 10.7875C85.4377 11.9374 82.1368 15.1682 80.9265 20.3155C79.9363 24.5867 82.0268 28.9127 85.9879 30.665C89.0137 31.9792 92.0395 31.8149 94.9552 30.3364C99.3014 28.0913 101.667 24.5867 101.942 19.8775Z" fill="#D9D9D9"/>
</g>
<defs>
<clipPath id="clip0_398_310">
<rect width="113" height="42" fill="white"/>
</clipPath>
</defs>
</svg>
