<svg width="20" height="20" viewBox="0 0 20 20" fill="none" xmlns="http://www.w3.org/2000/svg">
<g clip-path="url(#clip0_504_630)">
<path fill-rule="evenodd" clip-rule="evenodd" d="M16.0399 3.96016C16.1571 4.07737 16.2229 4.23634 16.2229 4.4021L16.2229 12.6517C16.2229 12.9969 15.9431 13.2767 15.5979 13.2767C15.2528 13.2767 14.9729 12.9969 14.9729 12.6517L14.9729 5.91099L4.84402 16.0399C4.59994 16.284 4.20421 16.284 3.96014 16.0399C3.71606 15.7958 3.71606 15.4001 3.96014 15.156L14.0891 5.0271L7.34836 5.02711C7.00318 5.02711 6.72336 4.74728 6.72336 4.40211C6.72336 4.05693 7.00318 3.77711 7.34836 3.77711L15.5979 3.7771C15.7637 3.77711 15.9227 3.84295 16.0399 3.96016Z" fill="white"/>
</g>
<defs>
<clipPath id="clip0_504_630">
<rect width="20" height="20" fill="white"/>
</clipPath>
</defs>
</svg>
