<svg width="34" height="39" viewBox="0 0 34 39" fill="none" xmlns="http://www.w3.org/2000/svg">
<g clip-path="url(#clip0_549_148)">
<path fill-rule="evenodd" clip-rule="evenodd" d="M16.936 38.4906L33.8691 29.2529L34.0002 9.23777L16.936 18.4755V38.4906Z" fill="#0F0F0F"/>
<path fill-rule="evenodd" clip-rule="evenodd" d="M16.9345 18.4755L34 9.23773L17 -7.62939e-06L0 9.23773L16.9345 18.4755Z" fill="#0F0F0F"/>
<path fill-rule="evenodd" clip-rule="evenodd" d="M0 9.23779L16.9358 18.4755V38.4906L0 29.2529L0 9.23779Z" fill="#0F0F0F"/>
<path fill-rule="evenodd" clip-rule="evenodd" d="M16.9355 35.2831L31.0488 27.585L31.158 10.9057L16.9355 18.6038V35.2831Z" fill="#B2B2B2"/>
<path fill-rule="evenodd" clip-rule="evenodd" d="M16.9366 18.0348L3.86816 10.9066L16.9903 3.77665L30.1092 10.9049L16.9366 18.0348Z" fill="#767676" stroke="#767676"/>
<path fill-rule="evenodd" clip-rule="evenodd" d="M2.8418 10.9056L16.9359 18.6038V35.283L2.8418 27.5849V10.9056Z" fill="#CDCDCD"/>
</g>
<defs>
<clipPath id="clip0_549_148">
<rect width="34" height="39" fill="white"/>
</clipPath>
</defs>
</svg>
