<svg width="36" height="40" viewBox="0 0 36 40" fill="none" xmlns="http://www.w3.org/2000/svg">
<g clip-path="url(#clip0_510_1145)">
<path d="M17.4478 0.171932C17.4517 0.159932 17.4525 0.147132 17.4509 0.135132H18.1009C18.0977 0.147932 18.0985 0.160732 18.1032 0.172732C17.8845 0.279932 17.6665 0.279932 17.4478 0.171932Z" fill="#94F1C6"/>
<path d="M34.803 9.84746C35.2656 10.503 35.4977 11.234 35.4977 12.039C35.4977 17.261 35.504 22.4831 35.4946 27.706C35.4914 29.2952 34.7975 30.5157 33.4489 31.3254C29.0041 33.992 24.5537 36.6491 20.1049 39.3071C19.3922 39.733 18.6183 39.9094 17.7935 39.8561C18.0569 39.7639 18.0373 39.5454 18.0373 39.3237C18.0342 37.0393 18.0357 34.7548 18.0357 32.4696C18.0357 32.3464 18.0255 32.2225 18.0577 32.1017C18.0953 31.9944 18.1824 31.965 18.2827 31.9602C18.6575 31.9412 18.9954 31.8077 19.313 31.617C21.3955 30.3631 23.4858 29.1211 25.5706 27.8713C26.1759 27.5081 26.7922 27.1609 27.3873 26.7819C28.1024 26.3258 28.5234 25.6663 28.525 24.7906C28.532 21.6011 28.525 18.4116 28.5313 15.2221C28.532 14.8184 28.4458 14.449 28.2608 14.0978C28.2255 14.031 28.1878 13.9658 28.1847 13.8872C28.191 13.7815 28.2733 13.7386 28.3478 13.6933C30.0406 12.6651 31.7334 11.6385 33.4301 10.6166C33.808 10.3894 34.1836 10.1589 34.5607 9.9309C34.6352 9.8864 34.7066 9.8268 34.803 9.84905V9.84746Z" fill="#E6E6E6"/>
<path d="M18.1072 32.0532C18.1049 32.7254 18.1009 33.3976 18.1009 34.0691C18.1002 35.8799 18.1009 37.6908 18.1002 39.5017C18.1002 39.8315 18.0962 39.8315 17.7936 39.8553C17.1358 39.8084 16.5312 39.5994 15.9565 39.2697C11.2921 36.5959 6.62533 33.926 1.95777 31.2586C1.10079 30.7691 0.606042 30.0436 0.500977 29.0488C0.502545 29.0011 0.506465 28.9535 0.506465 28.905C0.506465 23.3023 0.506465 17.6988 0.506465 12.0961C0.506465 12.0485 0.502545 12.0008 0.500977 11.9523C0.545668 11.3882 0.643677 10.8375 0.91418 10.3313C0.987883 10.2996 1.04512 10.3417 1.10314 10.375C2.48388 11.1609 3.86698 11.9428 5.24772 12.7286C5.98553 13.1482 6.72255 13.5693 7.46428 13.9825C7.54112 14.0254 7.62345 14.0612 7.67284 14.1414C7.67833 14.1637 7.67833 14.1851 7.67363 14.2074C7.52544 14.5816 7.46585 14.967 7.46663 15.3723C7.47369 18.6921 7.47134 22.0119 7.46977 25.3317C7.46977 25.9555 7.72381 26.4282 8.26011 26.7381C9.69417 27.5669 11.1353 28.3837 12.5717 29.2085C13.9963 30.0262 15.4226 30.8414 16.8496 31.6559C17.1467 31.8259 17.4651 31.9388 17.8101 31.9578C17.9049 31.9634 17.9982 31.9777 18.0837 32.0262L18.1072 32.0516V32.0532Z" fill="#B3B3B3"/>
<path d="M7.65529 14.1446C6.60542 13.5519 5.55477 12.9591 4.5049 12.3655C3.30763 11.6885 2.11036 11.0108 0.913086 10.333C1.21338 9.61942 1.71911 9.09419 2.3691 8.70405C3.39231 8.08983 4.41709 7.47958 5.44108 6.86694C8.85648 4.82484 12.2719 2.78273 15.6873 0.74062C16.2314 0.415631 16.8163 0.220956 17.4467 0.172485H18.1022C18.6691 0.218572 19.2062 0.371134 19.7009 0.65401C24.2297 3.24359 28.7569 5.83477 33.2833 8.42753C33.8973 8.77953 34.4187 9.23881 34.8021 9.84747C33.4205 10.6826 32.0374 11.5161 30.6567 12.352C29.8389 12.8471 29.0243 13.3469 28.2081 13.8451C28.1908 13.8602 28.172 13.8626 28.1524 13.8522C28.0536 13.7871 27.994 13.6838 27.9187 13.5964C27.5722 13.1919 27.1057 12.9623 26.6587 12.7072C25.5501 12.0747 24.4437 11.4367 23.3343 10.8042C21.9245 10 20.5211 9.18478 19.1074 8.38621C18.2339 7.89277 17.3675 7.93011 16.5058 8.4466C13.8604 10.0326 11.2126 11.6154 8.56402 13.1959C8.26686 13.3731 8.02458 13.6059 7.83327 13.8967C7.7776 13.9809 7.74075 14.0811 7.6545 14.143L7.65529 14.1446Z" fill="#D9D9D9"/>
<path d="M28.1738 13.8411C28.1855 13.8435 28.1973 13.8443 28.2091 13.8451C28.329 14.1335 28.4976 14.4013 28.554 14.7168C28.5697 14.805 28.5846 14.8908 28.5846 14.9798C28.5846 18.2932 28.5917 21.6067 28.5776 24.9202C28.5752 25.555 28.2804 26.089 27.8155 26.5157C27.2901 26.9996 26.6378 27.2849 26.0395 27.6512C24.6423 28.5078 23.231 29.3405 21.8244 30.182C20.9878 30.6826 20.1528 31.1863 19.3122 31.6814C18.9829 31.8752 18.634 32.0191 18.242 32.0159C18.1973 32.0159 18.1518 32.0389 18.1063 32.0516L18.0883 32.054C18.0358 31.9833 18.0358 31.8999 18.035 31.818C18.0279 30.673 17.9683 29.5296 17.9934 28.3846C17.9958 28.2892 17.9879 28.1923 18.0193 28.0993C18.0452 28.0334 18.1032 28.0095 18.1636 28.0016C18.5666 27.9507 18.8998 27.7346 19.237 27.532C20.8804 26.5467 22.5253 25.5638 24.1711 24.5825C24.7443 24.2408 25.0351 23.741 25.0336 23.0576C25.0281 21.033 25.0273 19.0084 25.0351 16.9837C25.0367 16.6317 24.9756 16.3036 24.8289 15.9889C24.8289 15.8967 24.9034 15.865 24.9622 15.8228C25.9423 15.126 26.9726 14.5086 28.0021 13.8912C28.0546 13.8594 28.1056 13.8252 28.1722 13.8395L28.1738 13.8411Z" fill="#B3B3B3"/>
<path d="M28.1735 13.8411C27.0555 14.5253 25.9272 15.1951 24.8562 15.9555C24.8209 15.9523 24.7887 15.938 24.7683 15.9094C24.4759 15.4891 24.0313 15.2746 23.6079 15.0322C22.0586 14.1462 20.5077 13.2618 18.9615 12.3703C18.938 12.3568 18.9129 12.3449 18.8902 12.3306C18.1947 11.8904 17.5306 11.946 16.8344 12.3767C15.2113 13.3802 13.5656 14.3441 11.9261 15.3198C11.5936 15.5177 11.2965 15.7465 11.1091 16.0978C11.0926 16.1279 11.0675 16.1518 11.037 16.1685C10.9546 16.1875 10.8943 16.1375 10.8323 16.0985C9.92593 15.5288 9.01014 14.9758 8.0771 14.4521C7.93283 14.3711 7.75799 14.3314 7.65919 14.1764C7.65684 14.1661 7.65527 14.155 7.65527 14.1438C7.81679 13.7267 8.10533 13.416 8.47619 13.1911C9.657 12.4744 10.8433 11.7672 12.0288 11.0584C13.5515 10.1478 15.0686 9.22848 16.5999 8.33457C17.4781 7.82205 18.3649 7.88165 19.236 8.39257C19.9369 8.80338 20.6457 9.20147 21.3498 9.60671C22.1245 10.0525 22.8976 10.5006 23.673 10.9448C24.4547 11.393 25.2419 11.83 26.0197 12.2853C26.545 12.5928 27.0994 12.851 27.5878 13.2213C27.816 13.3945 28.0152 13.598 28.1735 13.8403V13.8411Z" fill="#E6E6E6"/>
<path d="M7.65939 14.1764C8.58616 14.6762 9.50039 15.1982 10.388 15.7656C10.5981 15.8999 10.8129 16.0278 11.0262 16.1589C11.0756 16.2145 11.0552 16.2765 11.0364 16.3337C10.9635 16.553 10.9642 16.7779 10.9642 17.0051C10.9658 19.1585 10.9689 21.3126 10.9619 23.466C10.9603 23.9634 11.161 24.3091 11.5876 24.553C13.2137 25.4827 14.843 26.4084 16.4653 27.3452C16.6942 27.4779 16.9271 27.6042 17.1545 27.7393C17.3795 27.872 17.6218 27.9547 17.8781 27.996C17.944 28.0063 18.0154 28.0015 18.0632 28.0635C18.0655 28.2749 18.0687 28.487 18.071 28.6984C18.0812 29.7353 18.0906 30.7723 18.0993 31.81C18.0993 31.8919 18.0922 31.9737 18.0883 32.0548C17.3528 32.0484 16.7507 31.6797 16.1414 31.3245C15.4577 30.9257 14.7678 30.5355 14.0817 30.1414C13.2012 29.636 12.3215 29.1283 11.4402 28.6237C10.7525 28.2296 10.0641 27.8394 9.37572 27.4469C8.95859 27.2085 8.53285 26.9837 8.1267 26.727C7.66567 26.4354 7.41555 25.996 7.41477 25.4437C7.40928 21.992 7.41085 18.5411 7.41398 15.0894C7.41398 14.766 7.48298 14.4553 7.65783 14.1764H7.65939Z" fill="#D9D9D9"/>
<path d="M18.0631 28.0643C17.7385 28.0643 17.4398 27.9722 17.1591 27.8109C15.2726 26.7286 13.3862 25.6464 11.4981 24.5665C11.0959 24.3369 10.9038 23.9968 10.9046 23.528C10.9085 21.381 10.9085 19.2348 10.9038 17.0878C10.9038 16.7708 10.9218 16.4609 11.0261 16.1605C11.1939 15.7831 11.4817 15.5264 11.8274 15.3198C13.5414 14.2988 15.2546 13.2761 16.9639 12.2471C17.5786 11.8769 18.1839 11.8681 18.8033 12.2241C20.6098 13.261 22.4178 14.2956 24.2259 15.3294C24.4925 15.4819 24.6893 15.7028 24.8555 15.9571C25.0453 16.2559 25.0978 16.5872 25.0978 16.9368C25.0947 18.9893 25.0962 21.0409 25.097 23.0934C25.097 23.7624 24.8085 24.267 24.2455 24.6047C22.4672 25.6726 20.6851 26.7358 18.9052 27.8013C18.6449 27.9571 18.3658 28.0492 18.0631 28.0659V28.0643Z" fill="#CDCDCD"/>
</g>
<defs>
<clipPath id="clip0_510_1145">
<rect width="35" height="39.7297" fill="white" transform="translate(0.5 0.135132)"/>
</clipPath>
</defs>
</svg>
