<svg width="40" height="40" viewBox="0 0 40 40" fill="none" xmlns="http://www.w3.org/2000/svg">
<mask id="mask0_510_997" style="mask-type:luminance" maskUnits="userSpaceOnUse" x="4" y="0" width="32" height="40">
<path d="M35.5335 18.5186L25.1779 28.8778L35.5335 39.2371H23.7001L19.2594 34.7963L13.3409 28.8778L23.7001 18.5186H35.5335ZM23.7001 0.766724L4.4668 20.0001L10.3853 25.9186L35.5335 0.766724H23.7001Z" fill="white"/>
</mask>
<g mask="url(#mask0_510_997)">
<path d="M35.5336 18.5186H23.7003L13.3447 28.8778L19.2595 34.7963L35.5336 18.5186Z" fill="#CDCDCD"/>
</g>
<mask id="mask1_510_997" style="mask-type:luminance" maskUnits="userSpaceOnUse" x="4" y="0" width="32" height="40">
<path d="M35.5335 18.5186L25.1779 28.8778L35.5335 39.2371H23.7001L19.2594 34.7963L13.3409 28.8778L23.7001 18.5186H35.5335ZM23.7001 0.766724L4.4668 20.0001L10.3853 25.9186L35.5335 0.766724H23.7001Z" fill="white"/>
</mask>
<g mask="url(#mask1_510_997)">
<path d="M10.3853 25.9186L4.4668 20.0001L23.7001 0.766724H35.5335L10.3853 25.9186Z" fill="#CDCDCD"/>
</g>
<mask id="mask2_510_997" style="mask-type:luminance" maskUnits="userSpaceOnUse" x="4" y="0" width="32" height="40">
<path d="M35.5335 18.5186L25.1779 28.8778L35.5335 39.2371H23.7001L19.2594 34.7963L13.3409 28.8778L23.7001 18.5186H35.5335ZM23.7001 0.766724L4.4668 20.0001L10.3853 25.9186L35.5335 0.766724H23.7001Z" fill="white"/>
</mask>
<g mask="url(#mask2_510_997)">
<path d="M19.2593 34.7963L23.7 39.2334H35.5334L25.1778 28.8778L19.2593 34.7963Z" fill="#CDCDCD"/>
</g>
<mask id="mask3_510_997" style="mask-type:luminance" maskUnits="userSpaceOnUse" x="4" y="0" width="32" height="40">
<path d="M35.5335 18.5186L25.1779 28.8778L35.5335 39.2371H23.7001L19.2594 34.7963L13.3409 28.8778L23.7001 18.5186H35.5335ZM23.7001 0.766724L4.4668 20.0001L10.3853 25.9186L35.5335 0.766724H23.7001Z" fill="white"/>
</mask>
<g mask="url(#mask3_510_997)">
<path d="M19.2593 34.7963L28.0371 31.7556L25.1778 28.8778L19.2593 34.7963Z" fill="#CDCDCD"/>
</g>
<mask id="mask4_510_997" style="mask-type:luminance" maskUnits="userSpaceOnUse" x="4" y="0" width="32" height="40">
<path d="M35.5335 18.5186L25.1779 28.8778L35.5335 39.2371H23.7001L19.2594 34.7963L13.3409 28.8778L23.7001 18.5186H35.5335ZM23.7001 0.766724L4.4668 20.0001L10.3853 25.9186L35.5335 0.766724H23.7001Z" fill="white"/>
</mask>
<g mask="url(#mask4_510_997)">
<path d="M19.2624 22.9572L13.3438 28.8759L19.2624 34.7945L25.1811 28.8759L19.2624 22.9572Z" fill="#CDCDCD"/>
</g>
<path d="M35.5335 18.5186L25.1779 28.8778L35.5335 39.2371H23.7001L19.2594 34.7963L13.3409 28.8778L23.7001 18.5186H35.5335ZM23.7001 0.766724L4.4668 20.0001L10.3853 25.9186L35.5335 0.766724H23.7001Z" fill="#CDCDCD"/>
</svg>
