<svg width="40" height="41" viewBox="0 0 40 41" fill="none" xmlns="http://www.w3.org/2000/svg">
<path d="M17.7383 2.05667C17.235 2.16833 16.1917 2.54 15.4283 2.895C11.8167 4.645 9.62 8.76166 10.1783 12.7267C10.45 14.7669 11.3703 16.6659 12.8033 18.1433C14.6833 20.1 16.9183 21.03 19.6933 21.05C22.43 21.05 24.6833 20.1 26.5817 18.145C32.3167 12.1667 28.425 2.355 20.1583 1.945C19.3383 1.90833 18.2583 1.945 17.7383 2.05667ZM22.95 5.78333C24.4583 6.34167 26.2267 8.07333 26.58 9.35833C26.935 10.68 26.7467 12.3917 26.0967 13.6033C24.6633 16.2283 21.4033 18.1467 19.4483 17.5133C18.555 17.215 17.365 15.8567 16.7117 14.4217C15.3 11.2733 14.8333 8.555 15.485 7.28833C16.4717 5.37167 20.01 4.66333 22.9517 5.78166L22.95 5.78333ZM6.845 20.2667C2.115 21.7933 -0.67667 26.2633 0.141663 31.0667C0.941663 35.8333 5.43 39.39 10.1967 39.0167C13.585 38.775 16.4717 36.95 17.9983 34.0833C18.8367 32.4833 19.1333 31.29 19.1333 29.3917C19.1333 25.9833 17.515 23.06 14.5717 21.235C12.505 19.9317 9.155 19.5217 6.845 20.2683V20.2667ZM10.905 23.265C15.4667 24.01 17.9417 27.8267 16.155 31.4017C15.4283 32.835 13.9017 34.2883 12.3383 35.0333C11.2767 35.5167 10.9417 35.5917 9.955 35.5167C8.24166 35.405 7.47833 34.7167 6.54666 32.3883C5.43 29.6517 4.96333 26.375 5.52333 25.3133C6.21166 24.0283 7.385 23.3767 9.545 23.0967C9.65666 23.0967 10.2517 23.1717 10.905 23.265ZM27.3083 20.36C21.7417 22.315 19.2467 28.4967 21.8533 33.8217C22.5783 35.3117 24.2917 37.0617 25.82 37.8633C29.7467 39.93 33.9933 39.315 37.12 36.205C42.2033 31.1783 40.2867 22.7433 33.49 20.36C31.7583 19.7467 29.04 19.7467 27.3083 20.36ZM33.0067 23.6567C34.98 24.29 36.9533 26.1317 37.4 27.79C37.6983 28.8883 37.53 30.4717 37.0283 31.5133C36.115 33.395 33.845 35.0883 31.61 35.535C28.5933 36.1317 27.0483 34.065 26.36 28.5517C25.9483 25.22 26.86 23.6933 29.5433 23.285C30.66 23.1167 31.6267 23.2083 33.0067 23.6567Z" fill="#CDCDCD"/>
</svg>
