<svg width="40" height="40" viewBox="0 0 40 40" fill="none" xmlns="http://www.w3.org/2000/svg">
<g clip-path="url(#clip0_551_159)">
<path d="M23.4527 39.6608C23.4565 39.6627 23.4603 39.6643 23.4642 39.6658C24.2407 39.9963 25.103 40.0933 25.9248 39.9044C33.9828 38.0539 40.0002 30.7782 40.0002 22.0835V12.519C39.2919 12.6746 38.5575 12.8498 37.8429 13.0483H37.8363C34.3248 14.0209 31.2528 15.5295 33.4788 17.6173C37.8035 21.6701 29.8066 23.2413 24.351 24.4258C15.8264 26.2718 8.25265 33.1334 23.4527 39.6608Z" fill="#B2B2B2"/>
<path d="M0 18.2788V22.0689C0 23.6258 1.50923 24.7199 2.97439 24.232C4.71404 23.6525 6.72685 23.1446 9.04916 22.7285C28.6984 19.2152 25.6885 17.7661 24.1836 16.8167C22.6787 15.8637 20.082 13.6306 28.1377 11.9996C32.2754 11.1593 36.6884 10.6962 40 10.4446V-4.32949e-05H18.1147C8.11024 -4.32949e-05 0 8.18376 0 18.2788Z" fill="#CDCDCD"/>
<path d="M37.8428 13.0483C38.7124 12.7974 40.0001 12.5191 40.0001 12.5191C39.2918 12.6746 38.5574 12.8499 37.8428 13.0483Z" fill="#C4C2C1"/>
<path d="M23.4527 39.6608C17.1144 36.9391 14.736 34.1589 14.7354 31.7088C14.7344 28.2833 19.3811 25.5021 24.351 24.4258C28.7172 23.478 34.7107 22.282 34.7138 19.7652C34.7148 19.137 34.3425 18.4265 33.4788 17.6173C32.9549 17.1259 32.7245 16.6666 32.7242 16.2388C32.7229 14.8492 35.1513 13.7919 37.8363 13.0483H37.8429C38.5575 12.8498 39.2919 12.6746 40.0002 12.519V15.5925C37.3509 16.5518 35.574 17.8819 37.4133 19.6023C41.738 23.6551 33.7411 25.2264 28.2854 26.4108C20.6231 28.0718 13.7281 33.782 23.4527 39.6608Z" fill="#767676"/>
</g>
<defs>
<clipPath id="clip0_551_159">
<rect width="40" height="40" fill="white"/>
</clipPath>
</defs>
</svg>
