<svg width="24" height="24" viewBox="0 0 24 24" fill="none" xmlns="http://www.w3.org/2000/svg">
<path d="M12 0C5.4 0 0 5.4 0 12C0 18.6 5.4 24 12 24C18.6 24 24 18.6 24 12C24 5.4 18.6 0 12 0ZM16.731 18C16.511 18 16.401 17.89 16.181 17.78C14.531 16.789 12.441 16.24 10.241 16.24C9.031 16.24 7.711 16.46 6.611 16.68C6.391 16.68 6.171 16.79 6.061 16.79C5.621 16.79 5.291 16.46 5.291 16.02C5.291 15.58 5.511 15.25 5.951 15.25C7.381 14.92 8.812 14.7 10.352 14.7C12.882 14.7 15.192 15.36 17.172 16.46C17.392 16.68 17.612 16.79 17.612 17.23C17.39 17.78 17.06 18 16.731 18ZM17.94 14.921C17.72 14.921 17.5 14.811 17.28 14.701C15.41 13.491 12.769 12.831 9.91 12.831C8.48 12.831 7.159 13.051 6.17 13.271C5.95 13.381 5.84 13.381 5.62 13.381C5.07 13.381 4.739 12.941 4.739 12.5C4.739 11.95 4.959 11.73 5.509 11.509C6.829 11.179 8.15 10.849 10.02 10.849C13.1 10.849 15.96 11.619 18.381 13.049C18.711 13.269 18.931 13.599 18.931 13.93C18.82 14.48 18.491 14.921 17.94 14.921ZM19.37 11.4C19.15 11.4 19.04 11.29 18.71 11.18C16.51 9.97 13.32 9.2 10.24 9.2C8.7 9.2 7.05 9.42 5.619 9.75C5.399 9.75 5.289 9.86 4.959 9.86C4.299 9.971 3.859 9.42 3.859 8.761C3.859 8.102 4.189 7.77 4.629 7.661C6.39 7.22 8.26 7 10.24 7C13.65 7 17.17 7.77 19.921 9.2C20.251 9.42 20.581 9.75 20.581 10.3C20.471 10.96 20.03 11.4 19.37 11.4Z" fill="#B3B3B3"/>
</svg>
