<svg width="20" height="20" viewBox="0 0 20 20" fill="none" xmlns="http://www.w3.org/2000/svg">
<path d="M5 2.5C3.62409 2.5 2.5 3.62409 2.5 5V15C2.5 16.3759 3.62409 17.5 5 17.5H15C16.3759 17.5 17.5 16.3759 17.5 15V5C17.5 3.62409 16.3759 2.5 15 2.5H5ZM5 3.33333H15C15.9258 3.33333 16.6667 4.07425 16.6667 5V15C16.6667 15.9258 15.9258 16.6667 15 16.6667H5C4.07425 16.6667 3.33333 15.9258 3.33333 15V5C3.33333 4.07425 4.07425 3.33333 5 3.33333ZM6.82129 5.6543C6.20379 5.6543 5.83333 6.02447 5.83333 6.5153C5.83333 7.00947 6.20365 7.38118 6.75781 7.38118C7.37531 7.38118 7.74251 7.00947 7.74251 6.5153C7.74251 6.0253 7.37546 5.6543 6.82129 5.6543ZM5.88542 8.30241V13.3333H7.69694V8.30241H5.88542ZM9.19434 8.30241V13.3333H11.0059V10.5811C11.0059 9.76522 11.5901 9.64518 11.766 9.64518C11.9418 9.64518 12.4105 9.82105 12.4105 10.5811V13.3333H14.1667V10.5811C14.1667 9.00522 13.4621 8.30241 12.5863 8.30241C11.7104 8.30241 11.2417 8.59387 11.0059 9.00553V8.30241H9.19434Z" fill="#767676"/>
</svg>
