<svg width="20" height="20" viewBox="0 0 20 20" fill="none" xmlns="http://www.w3.org/2000/svg">
<path d="M15.4101 2.49513C15.3493 2.49653 15.2895 2.51125 15.2349 2.53824C15.1804 2.56524 15.1324 2.60385 15.0944 2.65138L10.8837 7.76368L7.54716 3.14291C7.25549 2.73958 6.78815 2.50001 6.29065 2.50001H3.3984C2.85006 2.50001 2.53232 3.12192 2.85315 3.56609L8.22099 10.9994L3.42769 16.818C3.39285 16.8604 3.36668 16.9091 3.35068 16.9616C3.33468 17.014 3.32917 17.0691 3.33446 17.1236C3.33975 17.1782 3.35573 17.2312 3.3815 17.2796C3.40726 17.328 3.44231 17.3708 3.48463 17.4056C3.52696 17.4405 3.57573 17.4666 3.62816 17.4826C3.6806 17.4986 3.73567 17.5041 3.79023 17.4988C3.8448 17.4935 3.89778 17.4776 3.94617 17.4518C3.99455 17.426 4.03739 17.391 4.07222 17.3486L8.72554 11.6976L12.4528 16.8571C12.7444 17.2604 13.2118 17.5 13.7093 17.5H16.6015C17.1499 17.5 17.4676 16.8781 17.1468 16.4339L11.3899 8.46355L15.7389 3.18198C15.7912 3.12064 15.8245 3.04547 15.835 2.96557C15.8454 2.88566 15.8324 2.80444 15.7976 2.73176C15.7628 2.65907 15.7077 2.59803 15.6389 2.55603C15.5701 2.51403 15.4907 2.49288 15.4101 2.49513ZM3.71252 3.33334H6.29228C6.52144 3.33334 6.73754 3.44373 6.8717 3.62957L16.2874 16.6667H13.7093C13.4801 16.6667 13.264 16.5563 13.1298 16.3705L3.71252 3.33334Z" fill="#767676"/>
</svg>
