<svg width="20" height="20" viewBox="0 0 20 20" fill="none" xmlns="http://www.w3.org/2000/svg">
<path d="M6.66667 2.5C4.37059 2.5 2.5 4.37059 2.5 6.66667V13.3333C2.5 15.6294 4.37059 17.5 6.66667 17.5H13.3333C15.6294 17.5 17.5 15.6294 17.5 13.3333V6.66667C17.5 4.37059 15.6294 2.5 13.3333 2.5H6.66667ZM6.66667 3.33333H13.3333C15.1789 3.33333 16.6667 4.82107 16.6667 6.66667V13.3333C16.6667 15.1789 15.1789 16.6667 13.3333 16.6667H6.66667C4.82107 16.6667 3.33333 15.1789 3.33333 13.3333V6.66667C3.33333 4.82107 4.82107 3.33333 6.66667 3.33333ZM14.5833 5C14.4728 5 14.3668 5.0439 14.2887 5.12204C14.2106 5.20018 14.1667 5.30616 14.1667 5.41667C14.1667 5.52717 14.2106 5.63315 14.2887 5.71129C14.3668 5.78943 14.4728 5.83333 14.5833 5.83333C14.6938 5.83333 14.7998 5.78943 14.878 5.71129C14.9561 5.63315 15 5.52717 15 5.41667C15 5.30616 14.9561 5.20018 14.878 5.12204C14.7998 5.0439 14.6938 5 14.5833 5ZM10 5.83333C8.64583 5.83333 7.57799 6.35615 6.87663 7.14518C6.17526 7.93422 5.83333 8.96991 5.83333 10C5.83333 11.0301 6.17526 12.0658 6.87663 12.8548C7.57799 13.6439 8.64583 14.1667 10 14.1667C11.3542 14.1667 12.422 13.6439 13.1234 12.8548C13.8247 12.0658 14.1667 11.0301 14.1667 10C14.1667 8.96991 13.8247 7.93422 13.1234 7.14518C12.422 6.35615 11.3542 5.83333 10 5.83333ZM10 6.66667C11.1458 6.66667 11.953 7.08135 12.5016 7.69857C13.0503 8.31578 13.3333 9.15509 13.3333 10C13.3333 10.8449 13.0503 11.6842 12.5016 12.3014C11.953 12.9186 11.1458 13.3333 10 13.3333C8.85417 13.3333 8.04701 12.9186 7.49837 12.3014C6.94974 11.6842 6.66667 10.8449 6.66667 10C6.66667 9.15509 6.94974 8.31578 7.49837 7.69857C8.04701 7.08135 8.85417 6.66667 10 6.66667Z" fill="#767676"/>
</svg>
