<svg width="42" height="42" viewBox="0 0 42 42" fill="none" xmlns="http://www.w3.org/2000/svg">
<g clip-path="url(#clip0_418_24)">
<path d="M42.2258 40.971L41.3368 40.124C40.8975 39.5447 40.4303 39.032 39.921 38.5647L39.9123 38.5577C39.3896 38.0829 38.8465 37.6314 38.283 37.2032C37.8315 36.8929 37.2108 36.519 36.421 36.0815C35.7718 35.7892 35.2643 35.2765 34.9895 34.6395L34.9825 34.622L34.8985 34.58C35.2695 34.5432 35.609 34.475 35.9345 34.3787L35.8943 34.3892L36.8918 34.1145C37.3048 33.985 37.7825 33.901 38.2778 33.8817H38.2883C38.8098 33.8607 39.3015 33.7767 39.7705 33.6385L39.7268 33.649C39.9531 33.593 40.1858 33.5294 40.425 33.4582C40.6642 33.387 40.8689 33.3235 41.0393 33.2675V32.9717C40.8701 32.7185 40.6653 32.4292 40.425 32.1037C40.1958 31.7922 39.9385 31.521 39.6498 31.2847L39.641 31.2777C38.9072 30.629 38.1471 30.0014 37.3608 29.3947C36.6678 28.854 35.882 28.3027 35.0665 27.7917L34.9475 27.7217C34.517 27.4382 34.0235 27.1757 33.5038 26.9605L33.4443 26.9395C32.9216 26.7271 32.4065 26.4944 31.899 26.2412C31.7293 26.1572 31.5315 26.0837 31.3268 26.033L31.3075 26.0295C31.1028 25.9875 30.9278 25.8825 30.8 25.7337L30.7983 25.732C30.5568 25.4135 30.345 25.0512 30.177 24.6662L30.163 24.6312C29.9938 24.2357 29.8107 23.856 29.6135 23.492C29.19 22.673 28.7805 21.8405 28.385 20.9947C27.9895 20.1489 27.6098 19.3019 27.2458 18.4537C26.9926 17.889 26.7598 17.325 26.5475 16.7615C26.313 16.142 26.0488 15.6117 25.7408 15.113L25.7635 15.1532C25.0075 13.8652 24.2533 12.7662 23.4343 11.7215L23.4833 11.788C22.673 10.766 21.833 9.85246 20.93 9.00546L20.916 8.99321C20.0253 8.15671 19.0663 7.35871 18.06 6.62021L17.9743 6.55896C16.9289 5.79946 15.7856 5.05163 14.5443 4.31546C14.0455 4.02146 13.4663 3.78171 12.8555 3.62771L12.81 3.61721L10.8623 3.13071L9.76151 3.04671C9.39518 3.01871 9.02826 3.00471 8.66076 3.00471C8.40176 2.86821 8.17951 2.70546 7.98351 2.51646C7.79101 2.33271 7.58276 2.15946 7.36576 2.00021L7.34826 1.98796C6.28951 1.37021 5.05926 0.804959 3.77301 0.360459L3.62426 0.314959C3.28651 0.117209 2.88051 0.00170898 2.44826 0.00170898C2.14026 0.00170898 1.84451 0.061209 1.57501 0.167959L1.59076 0.162709C0.925761 0.426959 0.418261 0.964209 0.199511 1.63271L0.194261 1.65021C0.0665115 1.95121 -0.00698853 2.29946 -0.00698853 2.66696C-0.00698853 3.31096 0.220511 3.90071 0.600261 4.36096L0.596761 4.35571C1.23143 5.20154 1.71793 5.86654 2.05626 6.35071C2.30943 6.69021 2.57076 7.04313 2.84026 7.40946C3.08701 7.73846 3.30576 8.11471 3.48251 8.51196L3.49651 8.54871C3.59451 8.75696 3.68026 9.00546 3.74326 9.26096L3.74851 9.28896C3.80451 9.52929 3.87509 9.79063 3.96026 10.073C4.21343 10.7216 4.45318 11.3866 4.67951 12.068C4.92626 12.8117 5.19926 13.4417 5.51601 14.042L5.48276 13.972C5.65193 14.2823 5.82168 14.5856 5.99201 14.882C6.16234 15.1783 6.34551 15.4676 6.54151 15.75C6.65526 15.9215 6.79876 16.0632 6.96326 16.1735L6.96851 16.177C7.14176 16.303 7.25551 16.5007 7.26426 16.7247C7.06476 17.0187 6.93001 17.3722 6.88451 17.752L6.88276 17.7625C6.82151 18.2052 6.73401 18.599 6.61501 18.9787L6.62901 18.9262C6.23876 20.0917 6.01476 21.4357 6.01476 22.8305C6.01476 23.282 6.03751 23.7265 6.08476 24.1657L6.07951 24.1115C6.18451 25.788 6.69026 27.328 7.50051 28.6615L7.47601 28.6177C7.82076 29.134 8.19001 29.5837 8.59776 29.995C8.89176 30.324 9.31876 30.5305 9.79476 30.5305C10.0608 30.5305 10.3128 30.4657 10.5333 30.3502L10.5245 30.3537C11.137 30.1332 11.5728 29.5732 11.6043 28.9065V28.903C11.6883 28.0735 11.8143 27.3315 11.9875 26.607L11.9648 26.7242C12.0068 26.614 12.0313 26.488 12.0313 26.355C12.0313 26.3287 12.0295 26.3025 12.0278 26.2762V26.2797C12.0138 26.1525 12.0913 26.0324 12.2605 25.9192V26.0032C12.4297 26.3987 12.6058 26.7936 12.789 27.188C12.9722 27.5823 13.1623 27.9772 13.3595 28.3727C13.8758 29.1585 14.4235 29.8445 15.0255 30.4762L15.0203 30.471C15.624 31.122 16.282 31.7065 16.9925 32.2227L17.031 32.249C17.402 32.5325 17.7275 32.8387 18.0215 33.173L18.0285 33.18C18.305 33.5055 18.6358 33.7732 19.0085 33.9745L19.026 33.9832V33.9412H19.11C19.0418 33.789 18.9315 33.6665 18.795 33.5825L18.7915 33.5807C18.6533 33.5037 18.5343 33.4267 18.4223 33.3427L18.431 33.348C18.1778 33.0948 17.9165 32.8125 17.647 32.501C17.3775 32.1895 17.1308 31.8931 16.9068 31.612C16.3141 30.793 15.7488 29.9372 15.211 29.0447C14.6732 28.1522 14.1651 27.2451 13.6868 26.3235C13.4604 25.872 13.2417 25.4065 13.0305 24.927C12.8193 24.4475 12.6146 23.982 12.4163 23.5305C12.3305 23.3572 12.271 23.1577 12.2483 22.946V22.9372C12.2378 22.736 12.1223 22.5627 11.9543 22.4735L11.9508 22.4717C11.739 22.8322 11.5045 23.1437 11.2368 23.4255L11.2385 23.4237C10.9603 23.716 10.7328 24.0607 10.57 24.4387L10.5613 24.4615C10.3145 25.06 10.1343 25.7547 10.0555 26.481L10.052 26.5142C9.96801 27.262 9.88343 28.0309 9.79826 28.8207L9.71426 28.8627L9.67226 28.9047C9.21726 28.812 8.84276 28.5215 8.63976 28.1295L8.63626 28.1207C8.42393 27.7112 8.23376 27.3087 8.06576 26.9132C7.63176 25.7985 7.36226 24.5087 7.32551 23.1612V23.1455C7.30976 22.932 7.30276 22.6817 7.30276 22.4315C7.30276 21.266 7.48651 20.1425 7.82601 19.089L7.80501 19.166C7.88901 18.8556 8.07218 18.333 8.35451 17.598C8.63684 16.863 8.69343 16.3549 8.52426 16.0737C8.43676 15.785 8.27401 15.5417 8.06051 15.3562L8.05876 15.3545C7.84526 15.169 7.65101 14.9747 7.47251 14.7682L7.46726 14.7612C7.27009 14.4765 7.07993 14.1732 6.89676 13.8512C6.71359 13.5292 6.55143 13.2119 6.41026 12.8992C6.12151 12.2307 5.82576 11.3925 5.58076 10.5315L5.54226 10.3757C5.26401 9.38696 4.95426 8.55046 4.58676 7.74546L4.63226 7.85746C4.43801 7.41646 4.21226 7.03496 3.94976 6.68671L3.96026 6.70071C3.67559 6.32038 3.42126 5.96046 3.19726 5.62096C2.91259 5.25463 2.63026 4.90171 2.35026 4.56221C2.06501 4.21746 1.81126 3.82896 1.60476 3.41246L1.58901 3.37746C1.50501 3.20771 1.43151 3.00996 1.38076 2.80521L1.37726 2.78596C1.35801 2.72471 1.34751 2.65296 1.34751 2.58121C1.34751 2.43771 1.38951 2.30296 1.46301 2.19096L1.46126 2.19446C1.48051 2.09646 1.52601 2.01071 1.58901 1.94071C1.65726 1.87946 1.74476 1.83396 1.83926 1.81471H1.84276C1.99151 1.71846 2.17176 1.66071 2.36776 1.66071C2.51476 1.66071 2.65651 1.69396 2.78076 1.75346L2.77551 1.75171C3.15876 1.86021 3.46851 1.96871 3.77126 2.09296L3.70826 2.07021C4.24376 2.29654 4.73784 2.51529 5.19051 2.72646C5.71201 2.97496 6.15651 3.23746 6.57651 3.52971L6.54501 3.50871C6.77134 3.64988 6.99709 3.80504 7.22226 3.97421C7.44743 4.14338 7.68718 4.31313 7.94151 4.48346H8.53476C8.98626 4.48346 9.46576 4.50504 9.97326 4.54821C10.486 4.58846 10.9603 4.68471 11.4118 4.83521L11.3698 4.82296C12.2115 5.07321 12.9343 5.36896 13.6203 5.72421L13.5485 5.69096C14.2403 6.04329 14.8966 6.41721 15.5173 6.81271C16.548 7.45496 17.4388 8.11296 18.277 8.83221L18.2473 8.80771C19.1223 9.55671 19.9168 10.325 20.6623 11.137L20.6798 11.158C21.4078 11.9525 22.1025 12.8152 22.7378 13.72L22.792 13.8022C23.3765 14.6282 23.9663 15.5837 24.4965 16.5742L24.57 16.723C24.7118 16.9925 24.8553 17.3232 24.9795 17.661L24.9988 17.7187C25.1119 18.043 25.2385 18.3755 25.3785 18.7162C25.6888 19.422 26.0213 20.1343 26.376 20.853C26.7307 21.5716 27.0632 22.2705 27.3735 22.9495L28.3045 24.9812C28.6318 25.6917 28.9975 26.3042 29.4228 26.8695L29.4035 26.8432C29.7588 27.223 30.233 27.489 30.765 27.5817L30.779 27.5835C31.423 27.7445 31.9655 27.9265 32.4905 28.1417L32.4083 28.112C32.6585 28.2257 32.9805 28.3465 33.3113 28.4532L33.3813 28.4725C33.7523 28.5862 34.0743 28.7367 34.37 28.9257L34.3543 28.917C34.9265 29.2372 35.4113 29.5522 35.8733 29.8952L35.8365 29.869C36.316 30.2213 36.7955 30.5538 37.275 30.8665C37.5013 31.0356 37.8811 31.2824 38.4143 31.6067C38.9474 31.931 39.2298 32.2344 39.2613 32.5167C39.0618 32.5097 38.8255 32.5045 38.5893 32.5045C37.7283 32.5045 36.8813 32.5605 36.0518 32.669L36.1498 32.6585C35.2118 32.7845 34.3613 33.0137 33.5615 33.341L33.6315 33.3165C33.4338 33.4022 33.1975 33.481 32.9525 33.5422L32.9193 33.5492C32.6708 33.586 32.4783 33.7855 32.4538 34.034C32.5605 34.167 32.6463 34.3227 32.704 34.4907L32.7075 34.5012C32.767 34.6797 32.8388 34.8337 32.9263 34.9772L32.921 34.9667C33.1293 35.336 33.3533 35.6545 33.6053 35.9485L33.5983 35.9397C33.845 36.2442 34.1233 36.5085 34.4313 36.7342L34.4435 36.743C34.7282 36.9693 35.0245 37.202 35.3325 37.4412C35.6143 37.6617 35.9328 37.8787 36.2635 38.0747L36.3055 38.0975C36.8025 38.402 37.38 38.6925 37.982 38.9357L38.0625 38.9637C38.717 39.2262 39.2788 39.5307 39.8003 39.893L39.7723 39.8737C40.1118 40.0709 40.4501 40.2896 40.7873 40.53C41.1244 40.7703 41.4488 41.003 41.7603 41.2282C41.888 41.3542 42 41.4942 42.0945 41.6465L42.0998 41.6552C42.259 41.8372 42.4795 41.9615 42.7298 41.993H42.735V41.909C42.581 41.7917 42.4673 41.629 42.413 41.4417L42.4113 41.4347C42.3675 41.2562 42.3028 41.1005 42.2153 40.957L42.2188 40.964L42.2258 40.971ZM9.71776 7.36221C9.49143 7.36221 9.27968 7.36921 9.08251 7.38321C8.88126 7.39721 8.69401 7.43396 8.51726 7.49346L8.53301 7.48821V7.53021H8.61701C8.73018 7.69938 8.87251 7.88954 9.04401 8.10071C9.21551 8.31188 9.37068 8.51663 9.50951 8.71496L10.1868 10.1115L10.2708 10.0695C10.4685 9.92596 10.6208 9.73346 10.7118 9.50771L10.7153 9.49896C10.8063 9.25571 10.8588 8.97221 10.8588 8.67821C10.8588 8.64671 10.8588 8.61521 10.857 8.58371V8.58896C10.7783 8.51196 10.7135 8.42096 10.668 8.31946L10.6663 8.31421L10.5245 7.99571C10.4318 7.84871 10.3023 7.73321 10.15 7.65971L10.1448 7.65796C9.98026 7.57921 9.84026 7.47946 9.71776 7.36221Z" fill="#B3B3B3"/>
</g>
<defs>
<clipPath id="clip0_418_24">
<rect width="42" height="42" fill="white"/>
</clipPath>
</defs>
</svg>
