<svg width="42" height="42" viewBox="0 0 42 42" fill="none" xmlns="http://www.w3.org/2000/svg">
<g clip-path="url(#clip0_398_404)">
<path d="M2.52714 1.81147L25.767 0.0949327C28.6217 -0.149927 29.3551 0.0151326 31.1501 1.32007L38.5686 6.54613C39.7921 7.44493 40.1995 7.68979 40.1995 8.66839V37.3305C40.1995 39.1268 39.5472 40.1894 37.2637 40.3515L10.2761 41.9862C8.56254 42.0672 7.74648 41.8224 6.84894 40.6787L1.386 33.5748C0.40614 32.2674 0 31.2888 0 30.1447V4.66747C0 3.19873 0.65226 1.97401 2.52714 1.81147Z" fill="white"/>
<path fill-rule="evenodd" clip-rule="evenodd" d="M25.767 0.0953526L2.52714 1.81189C0.65226 1.97401 0 3.19915 0 4.66747V30.1447C0 31.2883 0.40614 32.2669 1.386 33.5748L6.84894 40.6783C7.74648 41.8219 8.56254 42.0672 10.2761 41.9857L37.2641 40.3519C39.5459 40.1894 40.1999 39.1268 40.1999 37.3309V8.66881C40.1999 7.74061 39.8332 7.47307 38.7538 6.68095L31.1501 1.32007C29.3555 0.0151326 28.6217 -0.149927 25.767 0.0949327V0.0953526ZM10.8864 8.19967C8.68266 8.34793 8.18286 8.38153 6.93126 7.36387L3.74934 4.83295C3.42594 4.50535 3.58848 4.09669 4.40328 4.01521L26.7443 2.38267C28.6205 2.21887 29.5974 2.87281 30.3311 3.44401L34.1628 6.22021C34.3266 6.30295 34.734 6.79141 34.2439 6.79141L11.172 8.18035L10.8864 8.19967ZM8.31726 37.086V12.7542C8.31726 11.6916 8.6436 11.2014 9.62052 11.1191L36.12 9.56761C37.0188 9.48655 37.4249 10.0578 37.4249 11.1187V35.2884C37.4249 36.351 37.2611 37.2498 35.7941 37.3309L10.4357 38.8009C8.96868 38.8819 8.31768 38.3935 8.31768 37.086H8.31726ZM33.3493 14.0587C33.5118 14.7937 33.3493 15.5287 32.6143 15.6127L31.3921 15.855V33.8197C30.3307 34.3909 29.3538 34.7172 28.5373 34.7172C27.2324 34.7172 26.9065 34.3086 25.9291 33.0847L17.9365 20.5099V32.676L20.4649 33.2485C20.4649 33.2485 20.4649 34.7185 18.425 34.7185L12.8012 35.0448C12.6374 34.7172 12.8012 33.9012 13.3711 33.7386L14.8399 33.3312V17.2452L12.8016 17.0802C12.6378 16.3452 13.0452 15.2838 14.1876 15.2015L20.2217 14.7954L28.5377 27.5327V16.2641L26.418 16.0205C26.2542 15.1204 26.9065 14.4665 27.7213 14.3867L33.3493 14.0587Z" fill="#B3B3B3"/>
</g>
<defs>
<clipPath id="clip0_398_404">
<rect width="42" height="42" fill="white"/>
</clipPath>
</defs>
</svg>
