<svg width="19" height="18" viewBox="0 0 19 18" fill="none" xmlns="http://www.w3.org/2000/svg">
<path d="M10.3654 1.49367C10.1464 1.46667 9.90561 1.53193 9.73236 1.70443L5.20913 6.20442C4.84613 6.56667 4.96087 7.19442 5.41987 7.42317L7.03761 8.24366C7.50336 7.84616 8.37336 7.77491 8.37336 7.77491C9.19161 7.77491 9.97161 8.10941 10.5529 8.68916L10.5769 8.71241C11.5579 9.69041 11.6876 11.2572 11.0689 12.4152C13.3548 13.0729 15.5216 11.5114 15.5216 8.99366C15.5216 8.81966 15.5463 8.29542 15.1698 7.79817C14.6853 7.15692 13.6301 6.45716 12.8734 5.59541C11.5984 4.14266 11.0434 2.09967 10.9046 1.86867C10.7786 1.65942 10.5851 1.52067 10.3654 1.49367ZM14.8653 3.06417C14.5489 3.01842 14.2511 3.07767 14.0216 3.15792C13.7576 3.24942 13.4763 3.52617 13.3421 3.67317C13.4546 3.98292 14.0224 4.63616 14.3268 4.93916C14.6966 5.30816 15.2336 5.75742 15.5216 6.01692C15.6851 5.85417 15.9911 5.60667 16.1313 5.26692C16.3488 4.73967 16.2536 4.02568 15.8501 3.60268C15.5313 3.26893 15.1818 3.10992 14.8653 3.06417ZM8.37336 9.27491C7.94886 9.27491 7.51686 9.42941 7.22511 9.7204L3.21713 13.7982C2.59388 14.4199 2.58412 15.3941 3.19387 16.0016L3.21713 16.0249C3.83362 16.6399 4.85062 16.6399 5.46712 16.0249L9.52161 11.9937C10.1381 11.3794 10.1381 10.3812 9.52161 9.76691L9.49836 9.74366C9.19761 9.44366 8.79036 9.27491 8.37336 9.27491Z" fill="#2A343D"/>
</svg>
