<svg width="19" height="18" viewBox="0 0 19 18" fill="none" xmlns="http://www.w3.org/2000/svg">
<path d="M8.7492 1.46484C7.50653 1.46484 6.49928 2.46984 6.49921 3.71484V4.51172H5.74921C5.06333 4.48412 4.01063 4.93217 3.61636 6.03519L2.74921 6.01172C2.33498 6.01172 1.99913 6.34674 1.99921 6.76172C1.99921 7.17669 2.33498 7.51209 2.74921 7.51209H3.49921V8.26209H2.74921C2.33498 8.26209 1.99913 8.59659 1.99921 9.01209C1.99921 9.42684 2.33498 9.76134 2.74921 9.76209H3.49921V10.5121H2.74921C2.33498 10.5121 1.99913 10.8466 1.99921 11.2621C1.99921 11.6768 2.33498 12.0121 2.74921 12.0121H3.49921V12.7621H2.74921C2.33498 12.7621 1.99913 13.0966 1.99921 13.5121C1.99921 13.9268 2.33498 14.2621 2.74921 14.2621H3.49921C3.49921 15.5041 4.50653 16.5121 5.74921 16.5121H10.9992C12.2419 16.5121 13.2492 15.5041 13.2492 14.2621V13.5121L13.9992 13.4881C15.2419 13.4881 16.2491 12.4831 16.2492 11.2381V3.71484C16.2492 2.46992 15.2418 1.46469 13.9992 1.46484H8.7492ZM13.9992 2.96484C14.4134 2.96484 14.7493 3.29987 14.7492 3.71484V11.2148C14.7492 11.6296 14.4134 11.9648 13.9992 11.9648L13.2492 11.9881V6.76172C13.2492 5.51904 12.2419 4.51172 10.9992 4.51172H7.9992V3.73832C7.9992 3.32335 8.33498 2.98825 8.7492 2.98832L13.9992 2.96484Z" fill="#2A343D"/>
</svg>
