<svg width="302" height="430" viewBox="0 0 302 430" fill="none" xmlns="http://www.w3.org/2000/svg">
<path d="M260.68 97.2139H260.679L259.224 144.237L259.604 144.249L259.224 144.25C259.225 144.853 259.229 145.462 259.234 146.074C259.237 146.298 259.24 146.522 259.242 146.747C259.247 147.154 259.251 147.562 259.257 147.972C259.272 149.037 259.29 150.111 259.309 151.192C259.333 152.581 259.356 153.98 259.373 155.383C259.38 155.92 259.386 156.457 259.39 156.995C259.392 157.302 259.395 157.608 259.397 157.915C259.4 158.721 259.399 159.527 259.393 160.331C259.384 161.569 259.362 162.803 259.322 164.03C259.309 164.448 259.295 164.865 259.277 165.281C259.274 165.365 259.27 165.449 259.266 165.533C259.249 165.908 259.23 166.281 259.209 166.653C259.202 166.779 259.195 166.904 259.188 167.029C259.161 167.478 259.132 167.924 259.099 168.369C259.094 168.429 259.09 168.49 259.085 168.55C259.053 168.977 259.017 169.402 258.979 169.825C258.972 169.894 258.967 169.963 258.96 170.032C258.947 170.173 258.933 170.313 258.919 170.453C258.903 170.61 258.887 170.767 258.87 170.924C258.858 171.038 258.847 171.153 258.834 171.267C258.808 171.503 258.781 171.738 258.752 171.973C258.746 172.027 258.739 172.081 258.733 172.135C258.697 172.423 258.66 172.71 258.62 172.996C258.608 173.083 258.595 173.171 258.583 173.258C258.554 173.464 258.523 173.669 258.492 173.873C258.48 173.956 258.467 174.038 258.454 174.12C258.417 174.358 258.378 174.595 258.338 174.831C258.33 174.877 258.324 174.924 258.316 174.97C258.264 175.267 258.21 175.564 258.154 175.858C258.149 175.887 258.138 175.919 258.125 175.954C258.121 175.964 258.118 175.975 258.113 175.986C258.108 176 258.1 176.013 258.093 176.027C258.075 176.065 258.055 176.106 258.028 176.15C258.015 176.173 257.999 176.196 257.983 176.221C257.957 176.26 257.93 176.301 257.898 176.345C257.841 176.421 257.775 176.503 257.697 176.592C257.624 176.676 257.543 176.764 257.454 176.854C257.433 176.877 257.411 176.899 257.389 176.922C257.271 177.039 257.142 177.161 257.001 177.287C256.894 177.383 256.781 177.482 256.661 177.583C256.47 177.744 256.266 177.911 256.049 178.08C256.012 178.109 255.975 178.139 255.937 178.168C255.848 178.237 255.757 178.306 255.664 178.376C255.601 178.423 255.538 178.471 255.474 178.519C255.129 178.775 254.761 179.035 254.379 179.301C254.018 179.551 253.644 179.804 253.261 180.058C252.72 180.416 252.164 180.774 251.609 181.124C251.46 181.218 251.311 181.311 251.163 181.403C250.194 182.008 249.239 182.584 248.38 183.096C247.05 183.887 245.955 184.524 245.392 184.87H245.391L221.401 199.399L221.597 199.724L221.4 199.399C221.147 199.553 220.89 199.714 220.63 199.879C220.58 199.911 220.529 199.944 220.479 199.977C220.256 200.119 220.031 200.265 219.803 200.415C219.738 200.458 219.672 200.501 219.607 200.545C219.415 200.672 219.221 200.802 219.026 200.935C218.918 201.008 218.809 201.082 218.699 201.157C218.533 201.272 218.365 201.388 218.196 201.506C218.084 201.584 217.97 201.663 217.857 201.743C217.512 201.986 217.163 202.235 216.81 202.489C216.363 202.811 215.91 203.143 215.452 203.481C215.41 203.513 215.367 203.545 215.324 203.576C214.883 203.904 214.436 204.238 213.985 204.578C213.59 204.877 213.191 205.181 212.789 205.487C210.871 206.952 208.893 208.496 206.913 210.028C205.412 211.19 203.911 212.346 202.431 213.454C202.244 213.594 202.058 213.733 201.872 213.871C201.774 213.944 201.676 214.017 201.578 214.09C201.338 214.268 201.099 214.443 200.86 214.618C200.672 214.756 200.484 214.894 200.296 215.03C200.194 215.104 200.091 215.177 199.989 215.251C199.131 215.871 198.285 216.466 197.456 217.03C197.05 217.307 196.648 217.576 196.251 217.836C196.132 217.914 196.013 217.99 195.895 218.066C195.691 218.198 195.489 218.327 195.288 218.454C195.146 218.544 195.004 218.632 194.863 218.719C194.682 218.831 194.501 218.941 194.322 219.049C194.131 219.164 193.942 219.277 193.754 219.387C193.716 219.409 193.679 219.431 193.642 219.453C193.389 219.599 193.139 219.74 192.893 219.876C192.849 219.9 192.805 219.925 192.761 219.949C192.511 220.086 192.264 220.217 192.02 220.343C192.001 220.352 191.983 220.362 191.965 220.371C191.696 220.509 191.43 220.64 191.169 220.764L190.517 221.072L191.141 221.435C191.467 221.624 191.79 221.816 192.109 222.012C192.269 222.109 192.426 222.209 192.584 222.308C192.748 222.409 192.912 222.51 193.074 222.612C193.738 223.032 194.394 223.46 195.052 223.889C195.214 223.994 195.377 224.099 195.539 224.204C196.173 224.616 196.81 225.029 197.456 225.433C197.771 225.629 198.089 225.824 198.409 226.016L198.41 226.015L230.974 245.681C231.633 246.083 232.295 246.482 232.957 246.88C233.142 246.991 233.328 247.101 233.513 247.212C233.968 247.484 234.424 247.755 234.88 248.025C235.402 248.335 235.926 248.643 236.449 248.951C239.537 250.769 242.636 252.566 245.708 254.402C245.941 254.541 246.172 254.681 246.404 254.82C246.855 255.091 247.305 255.363 247.754 255.636C247.941 255.749 248.128 255.863 248.315 255.977C248.957 256.369 249.598 256.764 250.236 257.162C250.732 257.472 251.227 257.783 251.72 258.097C252.849 258.815 253.97 259.546 255.082 260.291L256.441 261.211L256.552 261.287C257.6 262.004 258.725 262.783 259.281 263.814V263.815C260.106 265.343 260.297 267.481 260.397 269.313C260.588 272.851 260.716 291.319 260.678 309.252C260.659 318.215 260.598 327.037 260.483 333.785C260.425 337.159 260.354 340.013 260.268 342.104C260.225 343.15 260.177 344.003 260.127 344.633C260.102 344.948 260.076 345.205 260.05 345.4C260.022 345.605 259.998 345.716 259.984 345.758C259.678 346.616 258.798 347.615 257.734 348.571C256.686 349.514 255.516 350.367 254.704 350.94C254.478 351.1 254.251 351.257 254.022 351.412C253.948 351.462 253.874 351.51 253.801 351.56C253.654 351.658 253.507 351.755 253.359 351.852C253.268 351.911 253.177 351.971 253.086 352.029C251.131 353.287 249.091 354.419 247.064 355.596C246.957 355.657 246.851 355.718 246.745 355.78C246.602 355.864 246.459 355.948 246.316 356.032C245.969 356.236 245.624 356.441 245.28 356.649H245.279L222.274 370.494C221.602 370.897 220.922 371.311 220.234 371.733C220.069 371.835 219.904 371.937 219.738 372.039C219.227 372.354 218.711 372.673 218.192 372.996C217.784 373.25 217.375 373.507 216.963 373.765C215.684 374.565 214.384 375.38 213.074 376.206C209.868 378.227 206.591 380.29 203.349 382.239C203.119 382.377 202.89 382.515 202.661 382.651C202.199 382.927 201.738 383.2 201.278 383.471C201.152 383.545 201.025 383.62 200.899 383.694C199.414 384.563 197.942 385.397 196.494 386.185C196.239 386.323 195.985 386.46 195.732 386.596C194.462 387.275 193.211 387.912 191.988 388.501C191.963 388.05 191.94 387.599 191.918 387.146C191.906 386.885 191.893 386.624 191.882 386.362C191.874 386.19 191.867 386.019 191.859 385.847C191.845 385.49 191.831 385.133 191.818 384.776C191.816 384.707 191.814 384.637 191.812 384.567C191.803 384.316 191.795 384.064 191.787 383.812C191.745 382.454 191.717 381.091 191.697 379.728C191.689 379.18 191.683 378.631 191.678 378.083C191.674 377.674 191.669 377.265 191.666 376.856C191.661 376.124 191.658 375.392 191.656 374.66C191.656 374.515 191.656 374.369 191.655 374.224C191.653 372.575 191.656 370.927 191.659 369.282L191.665 365.384L191.667 332.86C191.667 330.232 191.684 327.606 191.683 324.979V324.718C191.682 323.984 191.68 323.25 191.676 322.516C191.674 322.237 191.671 321.958 191.669 321.679C191.665 321.163 191.66 320.646 191.653 320.13C191.649 319.801 191.643 319.472 191.638 319.143C191.629 318.633 191.619 318.124 191.607 317.614C191.597 317.219 191.588 316.823 191.576 316.428C191.572 316.269 191.568 316.111 191.563 315.952C191.544 315.37 191.522 314.787 191.498 314.204C191.486 313.924 191.474 313.643 191.461 313.362C191.456 313.26 191.452 313.159 191.447 313.057C191.427 312.647 191.405 312.237 191.382 311.827C191.22 308.998 190.766 307.067 189.76 305.473C188.883 304.082 187.605 302.98 185.827 301.757L185.034 301.225C184.528 300.892 184.02 300.562 183.511 300.235C183.308 300.105 183.104 299.977 182.901 299.848C182.557 299.629 182.213 299.412 181.868 299.196C181.665 299.069 181.462 298.942 181.259 298.815C180.901 298.593 180.541 298.373 180.182 298.152C180.023 298.055 179.864 297.957 179.704 297.859C179.279 297.6 178.853 297.343 178.426 297.087C178.277 296.997 178.128 296.907 177.979 296.817C177.469 296.512 176.958 296.209 176.447 295.906C175.705 295.467 174.961 295.03 174.216 294.595C171.95 293.27 169.679 291.959 167.417 290.635C166.976 290.377 166.536 290.119 166.096 289.859C165.745 289.653 165.394 289.446 165.044 289.238C164.877 289.139 164.709 289.039 164.542 288.939C163.903 288.558 163.265 288.176 162.629 287.79L142.752 275.724C142.441 275.532 142.118 275.329 141.782 275.117C141.682 275.054 141.581 274.991 141.479 274.926C141.225 274.765 140.965 274.599 140.699 274.429C139.853 273.887 138.95 273.303 138.007 272.694C137.899 272.624 137.789 272.555 137.68 272.484C137.135 272.134 136.578 271.778 136.014 271.418C135.64 271.18 135.264 270.941 134.884 270.702C134.639 270.548 134.393 270.393 134.146 270.239C133.992 270.144 133.839 270.047 133.685 269.952C133.415 269.785 133.144 269.62 132.873 269.455C132.737 269.372 132.602 269.288 132.466 269.206C132.437 269.188 132.407 269.171 132.378 269.153C131.953 268.897 131.527 268.644 131.102 268.396C130.785 268.21 130.469 268.027 130.153 267.848C130.122 267.83 130.091 267.813 130.06 267.795C130.045 267.787 130.031 267.78 130.017 267.771C129.76 267.626 129.504 267.484 129.249 267.344C129.141 267.284 129.034 267.224 128.926 267.165C128.603 266.989 128.282 266.819 127.964 266.652C127.893 266.615 127.822 266.579 127.751 266.542C127.438 266.381 127.129 266.224 126.821 266.073C126.194 265.766 125.58 265.483 124.983 265.229C124.924 265.205 124.867 265.179 124.809 265.155C124.679 265.101 124.548 265.05 124.42 264.999C124.352 264.972 124.285 264.943 124.218 264.917C124.031 264.844 123.847 264.776 123.664 264.71C123.62 264.694 123.575 264.68 123.53 264.664C123.392 264.615 123.254 264.568 123.118 264.523C123.064 264.506 123.011 264.489 122.957 264.472C122.823 264.429 122.69 264.39 122.559 264.352C122.504 264.336 122.451 264.319 122.397 264.304C122.22 264.255 122.045 264.21 121.874 264.17L121.792 264.15L121.709 264.168C121.551 264.202 121.389 264.241 121.224 264.284C121.181 264.295 121.139 264.308 121.096 264.319C120.971 264.354 120.844 264.391 120.715 264.431C120.659 264.448 120.603 264.465 120.546 264.483C120.417 264.525 120.287 264.568 120.155 264.614C120.113 264.629 120.07 264.642 120.027 264.657C119.857 264.718 119.684 264.783 119.509 264.851C119.444 264.876 119.379 264.903 119.314 264.929C119.188 264.979 119.061 265.03 118.934 265.083C118.862 265.113 118.79 265.143 118.718 265.174C118.598 265.225 118.477 265.279 118.356 265.333C118.281 265.366 118.205 265.399 118.13 265.434C118.041 265.474 117.951 265.516 117.86 265.558C117.752 265.608 117.643 265.658 117.533 265.71C117.354 265.796 117.172 265.883 116.989 265.974C115.993 266.466 114.956 267.029 113.902 267.631C113.863 267.653 113.823 267.676 113.783 267.698C113.75 267.717 113.718 267.737 113.685 267.756C113.367 267.938 113.049 268.124 112.73 268.312C112.3 268.567 111.869 268.827 111.438 269.09C111.394 269.116 111.35 269.141 111.307 269.168C111.187 269.241 111.067 269.317 110.947 269.391C110.659 269.568 110.37 269.747 110.083 269.927C109.939 270.017 109.795 270.107 109.651 270.197C109.449 270.325 109.247 270.453 109.045 270.581C108.63 270.844 108.219 271.109 107.813 271.37C107.258 271.727 106.711 272.079 106.178 272.426C106.039 272.516 105.901 272.604 105.764 272.693C104.804 273.318 103.893 273.913 103.053 274.454C102.917 274.542 102.782 274.628 102.65 274.713C102.464 274.832 102.282 274.949 102.105 275.062C101.771 275.274 101.451 275.474 101.149 275.661L80.6515 288.135L42.3419 227.842C42.9389 227.481 43.3306 227.243 43.5616 227.103C43.6293 227.061 43.6833 227.028 43.7247 227.003L43.8263 226.94C43.8295 226.938 43.8339 226.936 43.838 226.934C43.8391 226.933 43.8417 226.931 43.8429 226.931C43.8445 226.93 43.8478 226.927 43.8497 226.926C43.8527 226.924 43.8597 226.919 43.8644 226.915C43.874 226.907 43.9133 226.87 43.9396 226.838C43.9415 226.827 43.9425 226.816 43.9435 226.805L140.424 165.08C140.773 164.895 141.125 164.705 141.479 164.512C141.51 164.494 141.542 164.476 141.573 164.459C141.803 164.333 142.034 164.204 142.266 164.074C142.579 163.899 142.893 163.721 143.209 163.54C143.339 163.465 143.47 163.391 143.601 163.315C144.044 163.059 144.491 162.799 144.939 162.533C145.117 162.428 145.295 162.321 145.474 162.214C145.748 162.05 146.022 161.885 146.297 161.719C146.509 161.591 146.721 161.462 146.933 161.333C147.128 161.214 147.322 161.094 147.518 160.974C148.132 160.596 148.749 160.215 149.365 159.83C149.469 159.765 149.573 159.701 149.677 159.636C150.766 158.954 151.855 158.267 152.936 157.584C154.03 156.892 155.116 156.206 156.186 155.537C156.347 155.436 156.508 155.336 156.668 155.236L158.664 154.004L160.521 152.887C160.741 152.755 160.963 152.625 161.185 152.494C161.562 152.271 161.941 152.046 162.322 151.822C162.93 151.466 163.544 151.112 164.16 150.755C164.997 150.27 165.84 149.78 166.688 149.291C167.576 148.778 168.469 148.263 169.363 147.744C170.124 147.303 170.885 146.857 171.646 146.41C172.04 146.178 172.434 145.946 172.827 145.713C173.05 145.58 173.273 145.448 173.495 145.314C173.906 145.069 174.315 144.823 174.724 144.575C174.825 144.514 174.927 144.451 175.028 144.39C175.509 144.097 175.987 143.803 176.464 143.507C176.566 143.444 176.667 143.381 176.769 143.317C177.324 142.971 177.877 142.623 178.426 142.271C178.799 142.031 179.17 141.788 179.539 141.546C179.626 141.489 179.712 141.432 179.799 141.375C180.111 141.169 180.422 140.963 180.731 140.755C180.814 140.699 180.897 140.643 180.98 140.587C181.318 140.358 181.653 140.127 181.986 139.896C182.106 139.812 182.225 139.729 182.344 139.646C182.647 139.433 182.948 139.22 183.246 139.006C183.306 138.963 183.367 138.919 183.427 138.876C183.786 138.617 184.142 138.357 184.494 138.094C184.535 138.063 184.576 138.032 184.617 138.001C184.931 137.766 185.242 137.528 185.551 137.29C185.631 137.228 185.711 137.166 185.791 137.104C185.868 137.043 185.947 136.984 186.024 136.924L186.809 136.297C189.268 134.389 190.214 131.438 190.319 128.396L190.329 127.787C190.327 126.1 190.327 124.412 190.329 122.724C190.33 121.954 190.333 121.183 190.334 120.413C190.335 119.694 190.336 118.974 190.338 118.255C190.343 116.466 190.35 114.677 190.357 112.888C190.377 107.387 190.401 101.883 190.419 96.3789C190.424 94.9838 190.429 93.5886 190.432 92.1934C190.439 88.7378 190.441 85.2822 190.434 81.8271C190.432 81.0716 190.43 80.3161 190.427 79.5605C190.422 78.104 190.415 76.6476 190.405 75.1914C190.403 74.8633 190.402 74.5351 190.4 74.207C190.396 73.7659 190.393 73.3249 190.39 72.8838C190.382 71.9221 190.373 70.9605 190.363 69.999C190.359 69.5511 190.354 69.1032 190.349 68.6553C190.335 67.4777 190.321 66.3003 190.304 65.123C190.297 64.651 190.289 64.179 190.281 63.707C190.266 62.7466 190.25 61.7863 190.233 60.8262C190.226 60.4648 190.218 60.1035 190.211 59.7422C190.186 58.4969 190.161 57.2517 190.131 56.0068L260.712 40.4707L260.68 97.2139Z" fill="white" stroke="url(#paint0_linear_84_395)" stroke-width="0.758789"/>
<defs>
<linearGradient id="paint0_linear_84_395" x1="265.897" y1="214.546" x2="35.1935" y2="214.546" gradientUnits="userSpaceOnUse">
<stop stop-color="#BFE3FE"/>
<stop offset="1" stop-color="#60B8FA"/>
</linearGradient>
</defs>
</svg>
