<svg width="1440" height="636" viewBox="0 0 1440 636" fill="none" xmlns="http://www.w3.org/2000/svg">
<g clip-path="url(#clip0_398_60)">
<mask id="mask0_398_60" style="mask-type:luminance" maskUnits="userSpaceOnUse" x="0" y="0" width="1440" height="636">
<path d="M0 0H1440V636H0V0Z" fill="white"/>
</mask>
<g mask="url(#mask0_398_60)">
<path d="M0 0H1440V636H0V0Z" fill="#FAFAFA"/>
<path d="M178 0H16C7.16344 0 0 7.16344 0 16V178C0 186.837 7.16344 194 16 194H178C186.837 194 194 186.837 194 178V16C194 7.16344 186.837 0 178 0Z" stroke="#E4E4E7"/>
<path d="M372 0H210C201.163 0 194 7.16344 194 16V178C194 186.837 201.163 194 210 194H372C380.837 194 388 186.837 388 178V16C388 7.16344 380.837 0 372 0Z" stroke="#E4E4E7"/>
<path d="M566 0H404C395.163 0 388 7.16344 388 16V178C388 186.837 395.163 194 404 194H566C574.837 194 582 186.837 582 178V16C582 7.16344 574.837 0 566 0Z" stroke="#E4E4E7"/>
<path d="M760 0H598C589.163 0 582 7.16344 582 16V178C582 186.837 589.163 194 598 194H760C768.837 194 776 186.837 776 178V16C776 7.16344 768.837 0 760 0Z" stroke="#E4E4E7"/>
<path d="M954 0H792C783.163 0 776 7.16344 776 16V178C776 186.837 783.163 194 792 194H954C962.837 194 970 186.837 970 178V16C970 7.16344 962.837 0 954 0Z" stroke="#E4E4E7"/>
<path d="M1148 0H986C977.163 0 970 7.16344 970 16V178C970 186.837 977.163 194 986 194H1148C1156.84 194 1164 186.837 1164 178V16C1164 7.16344 1156.84 0 1148 0Z" stroke="#E4E4E7"/>
<path d="M1342 0H1180C1171.16 0 1164 7.16344 1164 16V178C1164 186.837 1171.16 194 1180 194H1342C1350.84 194 1358 186.837 1358 178V16C1358 7.16344 1350.84 0 1342 0Z" stroke="#E4E4E7"/>
<path d="M1536 0H1374C1365.16 0 1358 7.16344 1358 16V178C1358 186.837 1365.16 194 1374 194H1536C1544.84 194 1552 186.837 1552 178V16C1552 7.16344 1544.84 0 1536 0Z" stroke="#E4E4E7"/>
<path d="M178 194H16C7.16344 194 0 201.163 0 210V372C0 380.837 7.16344 388 16 388H178C186.837 388 194 380.837 194 372V210C194 201.163 186.837 194 178 194Z" stroke="#E4E4E7"/>
<path d="M372 194H210C201.163 194 194 201.163 194 210V372C194 380.837 201.163 388 210 388H372C380.837 388 388 380.837 388 372V210C388 201.163 380.837 194 372 194Z" stroke="#E4E4E7"/>
<path d="M566 194H404C395.163 194 388 201.163 388 210V372C388 380.837 395.163 388 404 388H566C574.837 388 582 380.837 582 372V210C582 201.163 574.837 194 566 194Z" stroke="#E4E4E7"/>
<path d="M760 194H598C589.163 194 582 201.163 582 210V372C582 380.837 589.163 388 598 388H760C768.837 388 776 380.837 776 372V210C776 201.163 768.837 194 760 194Z" stroke="#E4E4E7"/>
<path d="M954 194H792C783.163 194 776 201.163 776 210V372C776 380.837 783.163 388 792 388H954C962.837 388 970 380.837 970 372V210C970 201.163 962.837 194 954 194Z" stroke="#E4E4E7"/>
<path d="M1148 194H986C977.163 194 970 201.163 970 210V372C970 380.837 977.163 388 986 388H1148C1156.84 388 1164 380.837 1164 372V210C1164 201.163 1156.84 194 1148 194Z" stroke="#E4E4E7"/>
<path d="M1342 194H1180C1171.16 194 1164 201.163 1164 210V372C1164 380.837 1171.16 388 1180 388H1342C1350.84 388 1358 380.837 1358 372V210C1358 201.163 1350.84 194 1342 194Z" stroke="#E4E4E7"/>
<path d="M1536 194H1374C1365.16 194 1358 201.163 1358 210V372C1358 380.837 1365.16 388 1374 388H1536C1544.84 388 1552 380.837 1552 372V210C1552 201.163 1544.84 194 1536 194Z" stroke="#E4E4E7"/>
<path d="M178 388H16C7.16344 388 0 395.163 0 404V566C0 574.837 7.16344 582 16 582H178C186.837 582 194 574.837 194 566V404C194 395.163 186.837 388 178 388Z" stroke="#E4E4E7"/>
<path d="M372 388H210C201.163 388 194 395.163 194 404V566C194 574.837 201.163 582 210 582H372C380.837 582 388 574.837 388 566V404C388 395.163 380.837 388 372 388Z" stroke="#E4E4E7"/>
<path d="M566 388H404C395.163 388 388 395.163 388 404V566C388 574.837 395.163 582 404 582H566C574.837 582 582 574.837 582 566V404C582 395.163 574.837 388 566 388Z" stroke="#E4E4E7"/>
<path d="M760 388H598C589.163 388 582 395.163 582 404V566C582 574.837 589.163 582 598 582H760C768.837 582 776 574.837 776 566V404C776 395.163 768.837 388 760 388Z" stroke="#E4E4E7"/>
<path d="M954 388H792C783.163 388 776 395.163 776 404V566C776 574.837 783.163 582 792 582H954C962.837 582 970 574.837 970 566V404C970 395.163 962.837 388 954 388Z" stroke="#E4E4E7"/>
<path d="M1148 388H986C977.163 388 970 395.163 970 404V566C970 574.837 977.163 582 986 582H1148C1156.84 582 1164 574.837 1164 566V404C1164 395.163 1156.84 388 1148 388Z" stroke="#E4E4E7"/>
<path d="M1342 388H1180C1171.16 388 1164 395.163 1164 404V566C1164 574.837 1171.16 582 1180 582H1342C1350.84 582 1358 574.837 1358 566V404C1358 395.163 1350.84 388 1342 388Z" stroke="#E4E4E7"/>
<path d="M1536 388H1374C1365.16 388 1358 395.163 1358 404V566C1358 574.837 1365.16 582 1374 582H1536C1544.84 582 1552 574.837 1552 566V404C1552 395.163 1544.84 388 1536 388Z" stroke="#E4E4E7"/>
<path d="M178 582H16C7.16344 582 0 589.163 0 598V760C0 768.837 7.16344 776 16 776H178C186.837 776 194 768.837 194 760V598C194 589.163 186.837 582 178 582Z" stroke="#E4E4E7"/>
<path d="M372 582H210C201.163 582 194 589.163 194 598V760C194 768.837 201.163 776 210 776H372C380.837 776 388 768.837 388 760V598C388 589.163 380.837 582 372 582Z" stroke="#E4E4E7"/>
<path d="M566 582H404C395.163 582 388 589.163 388 598V760C388 768.837 395.163 776 404 776H566C574.837 776 582 768.837 582 760V598C582 589.163 574.837 582 566 582Z" stroke="#E4E4E7"/>
<path d="M760 582H598C589.163 582 582 589.163 582 598V760C582 768.837 589.163 776 598 776H760C768.837 776 776 768.837 776 760V598C776 589.163 768.837 582 760 582Z" stroke="#E4E4E7"/>
<path d="M954 582H792C783.163 582 776 589.163 776 598V760C776 768.837 783.163 776 792 776H954C962.837 776 970 768.837 970 760V598C970 589.163 962.837 582 954 582Z" stroke="#E4E4E7"/>
<path d="M1148 582H986C977.163 582 970 589.163 970 598V760C970 768.837 977.163 776 986 776H1148C1156.84 776 1164 768.837 1164 760V598C1164 589.163 1156.84 582 1148 582Z" stroke="#E4E4E7"/>
<path d="M1342 582H1180C1171.16 582 1164 589.163 1164 598V760C1164 768.837 1171.16 776 1180 776H1342C1350.84 776 1358 768.837 1358 760V598C1358 589.163 1350.84 582 1342 582Z" stroke="#E4E4E7"/>
<path d="M1536 582H1374C1365.16 582 1358 589.163 1358 598V760C1358 768.837 1365.16 776 1374 776H1536C1544.84 776 1552 768.837 1552 760V598C1552 589.163 1544.84 582 1536 582Z" stroke="#E4E4E7"/>
<path d="M566 0H404C395.163 0 388 7.16344 388 16V178C388 186.837 395.163 194 404 194H566C574.837 194 582 186.837 582 178V16C582 7.16344 574.837 0 566 0Z" stroke="url(#paint0_linear_398_60)" stroke-width="2"/>
<path d="M1342 388H1180C1171.16 388 1164 395.163 1164 404V566C1164 574.837 1171.16 582 1180 582H1342C1350.84 582 1358 574.837 1358 566V404C1358 395.163 1350.84 388 1342 388Z" stroke="url(#paint1_linear_398_60)" stroke-width="2"/>
<path d="M372 582H210C201.163 582 194 574.837 194 566V404C194 395.163 201.163 388 210 388H372C380.837 388 388 395.163 388 404V566C388 574.837 380.837 582 372 582Z" stroke="url(#paint2_linear_398_60)" stroke-width="2"/>
<path d="M194 275V371" stroke="url(#paint3_linear_398_60)" stroke-width="2"/>
<path d="M997 194H1137" stroke="url(#paint4_linear_398_60)" stroke-width="2"/>
<path d="M0 0H1440V636H0V0Z" fill="url(#paint5_radial_398_60)"/>
</g>
</g>
<defs>
<linearGradient id="paint0_linear_398_60" x1="388" y1="194" x2="582" y2="5.5" gradientUnits="userSpaceOnUse">
<stop stop-color="#6B39F4" stop-opacity="0.5"/>
<stop offset="0.254" stop-color="#6B39F4" stop-opacity="0"/>
</linearGradient>
<linearGradient id="paint1_linear_398_60" x1="1358" y1="388" x2="1164" y2="582" gradientUnits="userSpaceOnUse">
<stop stop-color="#6B39F4"/>
<stop offset="0.35" stop-color="#6B39F4" stop-opacity="0"/>
</linearGradient>
<linearGradient id="paint2_linear_398_60" x1="388" y1="582" x2="194" y2="388" gradientUnits="userSpaceOnUse">
<stop stop-color="#6B39F4"/>
<stop offset="0.25" stop-color="#6B39F4" stop-opacity="0"/>
</linearGradient>
<linearGradient id="paint3_linear_398_60" x1="-nan" y1="-nan" x2="-nan" y2="-nan" gradientUnits="userSpaceOnUse">
<stop stop-color="#6B39F4" stop-opacity="0"/>
<stop offset="0.5" stop-color="#6B39F4" stop-opacity="0.5"/>
<stop offset="1" stop-color="#6B39F4" stop-opacity="0"/>
</linearGradient>
<linearGradient id="paint4_linear_398_60" x1="-nan" y1="-nan" x2="-nan" y2="-nan" gradientUnits="userSpaceOnUse">
<stop stop-color="#6B39F4" stop-opacity="0"/>
<stop offset="0.5" stop-color="#6B39F4" stop-opacity="0.5"/>
<stop offset="1" stop-color="#6B39F4" stop-opacity="0"/>
</linearGradient>
<radialGradient id="paint5_radial_398_60" cx="0" cy="0" r="1" gradientUnits="userSpaceOnUse" gradientTransform="translate(720 318) rotate(-90) scale(318 757.22)">
<stop stop-color="#FAFAFA" stop-opacity="0"/>
<stop offset="1" stop-color="#FAFAFA"/>
</radialGradient>
<clipPath id="clip0_398_60">
<rect width="1440" height="636" fill="white"/>
</clipPath>
</defs>
</svg>
